SplineFontDB: 3.0
FontName: Bodoni-06-Medium
FullName: Bodoni* 06 Medium
FamilyName: Bodoni* 06 Medium
Weight: Medium
Copyright: Copyright (c) 2017, Owen Earl,,, (EwonRael@yahoo.com)
Version: 001.0
ItalicAngle: 0
UnderlinePosition: -409
UnderlineWidth: 204
Ascent: 3277
Descent: 819
InvalidEm: 0
LayerCount: 2
Layer: 0 0 "Back" 1
Layer: 1 0 "Fore" 0
PreferredKerning: 4
XUID: [1021 31 -699969567 16487490]
FSType: 0
OS2Version: 0
OS2_WeightWidthSlopeOnly: 0
OS2_UseTypoMetrics: 1
CreationTime: 1460762150
ModificationTime: 1556909667
PfmFamily: 17
TTFWeight: 500
TTFWidth: 5
LineGap: 410
VLineGap: 0
OS2TypoAscent: 3277
OS2TypoAOffset: 0
OS2TypoDescent: -819
OS2TypoDOffset: 0
OS2TypoLinegap: 410
OS2WinAscent: 4096
OS2WinAOffset: 0
OS2WinDescent: 1638
OS2WinDOffset: 0
HheadAscent: 4096
HheadAOffset: 0
HheadDescent: -819
HheadDOffset: 0
OS2CapHeight: 700
OS2XHeight: 460
OS2FamilyClass: 768
OS2Vendor: 'PfEd'
OS2UnicodeRanges: 00000001.00000000.00000000.00000000
Lookup: 1 0 0 "'ss02' Style Set 2 lookup 4" { "'ss02' Style Set 2 lookup 4-1"  } ['ss02' ('DFLT' <'dflt' > 'grek' <'dflt' > 'latn' <'dflt' > ) ]
Lookup: 1 0 0 "'ss03' Style Set 3 lookup 5" { "'ss03' Style Set 3 lookup 5-1"  } ['ss03' ('DFLT' <'dflt' > 'grek' <'dflt' > 'latn' <'dflt' > ) ]
Lookup: 1 0 0 "'ss01' Style Set 1 lookup 2" { "'ss01' Style Set 1 lookup 2-1"  } ['ss01' ('DFLT' <'dflt' > 'grek' <'dflt' > 'latn' <'dflt' > ) ]
Lookup: 5 0 0 "'calt' Contextual Alternates lookup 3" { "'calt' Contextual Alternates lookup 3-1"  } ['calt' ('DFLT' <'dflt' > 'grek' <'dflt' > 'latn' <'dflt' > ) ]
Lookup: 4 0 1 "'liga' Standard Ligatures lookup 0" { "'liga' Standard Ligatures lookup 0-1"  } ['liga' ('DFLT' <'dflt' > 'grek' <'dflt' > 'latn' <'dflt' > ) ]
Lookup: 258 0 0 "'kern' Horizontal Kerning lookup 0" { "kerning like they all do" [150,0,6] } ['kern' ('DFLT' <'dflt' > 'grek' <'dflt' > 'latn' <'dflt' > ) ]
MarkAttachClasses: 1
DEI: 91125
KernClass2: 30 27 "kerning like they all do"

StartChar: ampersand
Encoding: 38 38 0
GlifName: ampersand
Width: 3383
Flags: HMW
LayerCount: 2
Fore
SplineSet
2294 1884 m 1
 3277 1884 l 1
 3277 1802 l 1
 2294 1802 l 1
 2294 1884 l 1
2916 1843 m 1
 2793 930 2138 -41 1126 -41 c 0
 540 -41 164 250 164 737 c 0
 164 1327 831 1479 1323 1753 c 0
 1638 1929 1872 2114 1872 2589 c 0
 1872 2798 1806 3052 1532 3052 c 0
 1253 3052 1155 2855 1155 2646 c 0
 1155 2494 1266 2269 1442 2007 c 2
 2732 82 l 1
 3256 82 l 1
 3256 0 l 1
 2200 0 l 1
 844 2007 l 2
 738 2163 655 2368 655 2511 c 0
 655 2880 1020 3113 1536 3113 c 0
 2015 3113 2347 2896 2347 2568 c 0
 2347 2089 1830 1937 1343 1683 c 0
 999 1499 713 1311 713 852 c 0
 713 451 987 139 1372 139 c 0
 2101 139 2752 1016 2834 1843 c 1
 2916 1843 l 1
EndSplineSet
EndChar

StartChar: period
Encoding: 46 46 1
GlifName: period
Width: 917
Flags: HMW
LayerCount: 2
Fore
SplineSet
164 254 m 0
 164 418 295 549 459 549 c 0
 623 549 754 418 754 254 c 0
 754 90 623 -41 459 -41 c 0
 295 -41 164 90 164 254 c 0
EndSplineSet
EndChar

StartChar: zero
Encoding: 48 48 2
GlifName: zero
Width: 2605
Flags: HMW
LayerCount: 2
Fore
SplineSet
1303 -41 m 0
 619 -41 164 655 164 1536 c 0
 164 2417 660 3113 1303 3113 c 0
 1946 3113 2441 2417 2441 1536 c 0
 2441 655 1987 -41 1303 -41 c 0
1303 3043 m 0
 844 3043 733 2322 733 1536 c 0
 733 750 803 29 1303 29 c 0
 1803 29 1872 750 1872 1536 c 0
 1872 2322 1770 3043 1303 3043 c 0
EndSplineSet
EndChar

StartChar: one
Encoding: 49 49 3
GlifName: one
Width: 1880
VWidth: 4730
Flags: HMW
LayerCount: 2
Fore
SplineSet
205 82 m 1
 1675 82 l 1
 1675 0 l 1
 205 0 l 1
 205 82 l 1
274 3072 m 1
 1225 3072 l 1
 1225 41 l 1
 737 41 l 1
 737 2990 l 1
 274 2990 l 1
 274 3072 l 1
EndSplineSet
EndChar

StartChar: two
Encoding: 50 50 4
GlifName: two
Width: 2334
VWidth: 4730
Flags: HMW
LayerCount: 2
Fore
SplineSet
2191 0 m 1
 164 0 l 1
 164 324 l 1
 1044 1130 l 2
 1376 1437 1597 1810 1597 2220 c 0
 1597 2703 1372 2949 954 2949 c 0
 553 2949 323 2650 307 2294 c 1
 352 2372 443 2433 537 2433 c 0
 689 2433 827 2322 827 2154 c 0
 827 1966 680 1847 512 1847 c 0
 344 1847 209 1970 209 2249 c 0
 209 2728 549 3113 1167 3113 c 0
 1769 3113 2105 2753 2105 2335 c 0
 2105 1901 1819 1675 1565 1454 c 2
 487 467 l 1
 2109 467 l 1
 2109 774 l 1
 2191 774 l 1
 2191 0 l 1
EndSplineSet
EndChar

StartChar: three
Encoding: 51 51 5
GlifName: three
Width: 2215
VWidth: 4730
Flags: HMW
LayerCount: 2
Fore
SplineSet
2052 827 m 0
 2052 286 1581 -41 987 -41 c 0
 381 -41 102 287 102 598 c 0
 102 791 225 909 393 909 c 0
 540 909 655 807 655 635 c 0
 655 479 520 369 377 369 c 0
 316 369 278 389 262 393 c 1
 307 262 516 74 889 74 c 0
 1360 74 1540 417 1540 827 c 0
 1540 1155 1425 1622 774 1622 c 1
 774 1679 l 1
 1778 1679 2052 1286 2052 827 c 0
774 1642 m 1
 774 1700 l 1
 1384 1700 1417 2151 1417 2421 c 0
 1417 2732 1249 2998 942 2998 c 0
 663 2998 488 2854 418 2748 c 1
 434 2752 463 2765 508 2765 c 0
 643 2765 774 2667 774 2503 c 0
 774 2319 627 2228 500 2228 c 0
 353 2228 225 2327 225 2515 c 0
 225 2834 602 3109 1020 3109 c 0
 1507 3109 1929 2864 1929 2413 c 0
 1929 2003 1737 1642 774 1642 c 1
EndSplineSet
EndChar

StartChar: four
Encoding: 52 52 6
GlifName: four
Width: 2510
VWidth: 4730
Flags: HMW
LayerCount: 2
Fore
SplineSet
2327 82 m 1
 2327 0 l 1
 1143 0 l 1
 1143 82 l 1
 1532 82 l 1
 1532 2765 l 1
 299 922 l 1
 2470 922 l 1
 2470 840 l 1
 143 840 l 1
 1634 3072 l 1
 2019 3072 l 1
 2019 82 l 1
 2327 82 l 1
EndSplineSet
Substitution2: "'ss03' Style Set 3 lookup 5-1" four.alt
EndChar

StartChar: five
Encoding: 53 53 7
GlifName: five
Width: 2105
VWidth: 4730
Flags: HMW
LayerCount: 2
Fore
SplineSet
1839 2605 m 1
 340 2605 l 1
 340 1511 l 1
 258 1511 l 1
 258 3072 l 1
 1757 3072 l 1
 1757 3297 l 1
 1839 3297 l 1
 1839 2605 l 1
283 311 m 1
 324 225 516 49 819 49 c 0
 1315 49 1454 512 1454 930 c 0
 1454 1430 1274 1782 918 1782 c 0
 627 1782 439 1622 369 1511 c 1
 299 1511 l 1
 373 1679 610 1901 1032 1901 c 0
 1601 1901 1982 1544 1982 930 c 0
 1982 389 1528 -41 885 -41 c 0
 459 -41 90 217 90 545 c 0
 90 738 221 848 373 848 c 0
 508 848 655 761 655 573 c 0
 655 405 516 295 373 295 c 0
 328 295 308 303 283 311 c 1
EndSplineSet
EndChar

StartChar: six
Encoding: 54 54 8
GlifName: six
Width: 2375
VWidth: 4730
Flags: HMW
LayerCount: 2
Fore
SplineSet
1737 1024 m 0
 1737 1614 1549 1888 1225 1888 c 0
 926 1888 721 1630 721 1147 c 1
 664 1147 l 1
 664 1634 811 2011 1331 2011 c 0
 1761 2011 2253 1720 2253 1024 c 0
 2253 410 1880 -41 1245 -41 c 0
 610 -41 205 410 205 1270 c 0
 205 2265 967 3113 1946 3113 c 1
 1946 3043 l 1
 1225 3043 733 2221 733 1516 c 1
 721 1147 l 1
 721 557 860 41 1257 41 c 0
 1654 41 1737 516 1737 1024 c 0
EndSplineSet
EndChar

StartChar: seven
Encoding: 55 55 9
GlifName: seven
Width: 2125
VWidth: 4730
Flags: HMW
LayerCount: 2
Fore
SplineSet
655 336 m 0
 655 660 950 1070 1200 1516 c 0
 1356 1795 1569 2229 1745 2585 c 1
 246 2585 l 1
 246 2277 l 1
 164 2277 l 1
 164 3072 l 1
 2085 3072 l 1
 2085 3072 1593 2081 1298 1524 c 0
 1101 1155 1073 1024 1073 852 c 0
 1073 569 1286 508 1286 279 c 0
 1286 103 1180 -41 975 -41 c 0
 791 -41 655 45 655 336 c 0
EndSplineSet
EndChar

StartChar: eight
Encoding: 56 56 10
GlifName: eight
Width: 2334
VWidth: 4730
Flags: HMW
LayerCount: 2
Fore
SplineSet
754 2294 m 0
 754 1909 852 1618 1167 1618 c 0
 1482 1618 1581 1909 1581 2294 c 0
 1581 2671 1482 3031 1167 3031 c 0
 852 3031 754 2671 754 2294 c 0
246 2294 m 0
 246 2745 565 3113 1167 3113 c 0
 1769 3113 2089 2745 2089 2294 c 0
 2089 1843 1769 1556 1167 1556 c 0
 565 1556 246 1843 246 2294 c 0
672 778 m 0
 672 377 802 41 1167 41 c 0
 1532 41 1663 377 1663 778 c 0
 1663 1179 1532 1536 1167 1536 c 0
 802 1536 672 1179 672 778 c 0
164 778 m 0
 164 1270 483 1597 1167 1597 c 0
 1851 1597 2171 1270 2171 778 c 0
 2171 286 1851 -41 1167 -41 c 0
 483 -41 164 286 164 778 c 0
EndSplineSet
EndChar

StartChar: A
Encoding: 65 65 12
GlifName: A_
Width: 3084
Flags: HMW
LayerCount: 2
Fore
SplineSet
78 82 m 1
 979 82 l 1
 979 0 l 1
 78 0 l 1
 78 82 l 1
1757 82 m 1
 3027 82 l 1
 3027 0 l 1
 1757 0 l 1
 1757 82 l 1
774 1044 m 1
 2126 1044 l 1
 2126 963 l 1
 774 963 l 1
 774 1044 l 1
1360 2519 m 1
 483 0 l 1
 381 0 l 1
 1491 3133 l 1
 1655 3133 l 1
 2740 0 l 1
 2175 0 l 1
 1360 2519 l 1
EndSplineSet
EndChar

StartChar: B
Encoding: 66 66 13
GlifName: B_
Width: 2686
Flags: HMW
LayerCount: 2
Fore
SplineSet
1348 1556 m 2
 881 1556 l 1
 881 1618 l 1
 1315 1618 l 2
 1618 1618 1896 1786 1896 2273 c 0
 1896 2760 1618 2990 1315 2990 c 2
 78 2990 l 1
 78 3072 l 1
 1348 3072 l 2
 1991 3072 2404 2846 2404 2314 c 0
 2404 1790 2032 1556 1348 1556 c 2
446 3072 m 1
 934 3072 l 1
 934 0 l 1
 446 0 l 1
 446 3072 l 1
1430 0 m 2
 78 0 l 1
 78 82 l 1
 1356 82 l 2
 1700 82 1978 373 1978 860 c 0
 1978 1347 1700 1536 1356 1536 c 2
 881 1536 l 1
 881 1597 l 1
 1430 1597 l 2
 2032 1597 2527 1393 2527 844 c 0
 2527 238 2114 0 1430 0 c 2
EndSplineSet
EndChar

StartChar: C
Encoding: 67 67 14
GlifName: C_
Width: 2793
Flags: HMW
LayerCount: 2
Fore
SplineSet
2531 3072 m 1
 2593 3072 l 1
 2593 2208 l 1
 2269 2834 l 1
 2531 3072 l 1
2593 2208 m 1
 2511 2208 l 1
 2413 2683 2073 3006 1647 3006 c 0
 975 3006 750 2281 750 1536 c 0
 750 791 975 66 1647 66 c 0
 2163 66 2454 430 2552 864 c 1
 2634 864 l 1
 2585 344 2192 -41 1606 -41 c 0
 742 -41 180 623 180 1536 c 0
 180 2449 742 3113 1606 3113 c 0
 2130 3113 2536 2728 2593 2208 c 1
2634 864 m 1
 2634 0 l 1
 2572 0 l 1
 2310 270 l 1
 2634 864 l 1
EndSplineSet
EndChar

StartChar: D
Encoding: 68 68 15
GlifName: D_
Width: 2957
Flags: HMW
LayerCount: 2
Fore
SplineSet
446 3072 m 1
 934 3072 l 1
 934 0 l 1
 446 0 l 1
 446 3072 l 1
1290 0 m 2
 78 0 l 1
 78 82 l 1
 1290 82 l 2
 1995 82 2228 766 2228 1536 c 0
 2228 2306 1954 2990 1290 2990 c 2
 78 2990 l 1
 78 3072 l 1
 1290 3072 l 2
 2228 3072 2798 2425 2798 1536 c 0
 2798 647 2187 0 1290 0 c 2
EndSplineSet
EndChar

StartChar: E
Encoding: 69 69 16
GlifName: E_
Width: 2461
Flags: HMW
LayerCount: 2
Fore
SplineSet
2261 922 m 1
 2343 922 l 1
 2343 0 l 1
 78 0 l 1
 78 82 l 1
 1499 82 l 2
 2060 82 2236 402 2261 922 c 1
446 3072 m 1
 934 3072 l 1
 934 0 l 1
 446 0 l 1
 446 3072 l 1
78 3072 m 1
 2302 3072 l 1
 2302 2232 l 1
 2220 2232 l 1
 2195 2670 2019 2990 1540 2990 c 2
 78 2990 l 1
 78 3072 l 1
1548 1114 m 1
 1523 1388 1372 1548 1139 1548 c 2
 827 1548 l 1
 827 1630 l 1
 1139 1630 l 2
 1372 1630 1523 1770 1548 2044 c 1
 1630 2044 l 1
 1630 1114 l 1
 1548 1114 l 1
EndSplineSet
EndChar

StartChar: F
Encoding: 70 70 17
GlifName: F_
Width: 2371
Flags: HMW
LayerCount: 2
Fore
SplineSet
78 3072 m 1
 2253 3072 l 1
 2253 2232 l 1
 2171 2232 l 1
 2146 2670 1987 2990 1516 2990 c 2
 78 2990 l 1
 78 3072 l 1
78 82 m 1
 1343 82 l 1
 1343 0 l 1
 78 0 l 1
 78 82 l 1
446 3072 m 1
 934 3072 l 1
 934 0 l 1
 446 0 l 1
 446 3072 l 1
1573 1065 m 1
 1548 1339 1425 1487 1085 1487 c 2
 819 1487 l 1
 819 1569 l 1
 1085 1569 l 2
 1425 1569 1548 1696 1573 1970 c 1
 1655 1970 l 1
 1655 1065 l 1
 1573 1065 l 1
EndSplineSet
EndChar

StartChar: G
Encoding: 71 71 18
GlifName: G_
Width: 2994
Flags: HMW
LayerCount: 2
Fore
SplineSet
2626 2208 m 1
 2610 2265 2327 2810 2286 2843 c 1
 2564 3072 l 1
 2626 3072 l 1
 2626 2208 l 1
1769 1208 m 1
 2957 1208 l 1
 2957 1126 l 1
 1769 1126 l 1
 1769 1208 l 1
2200 1147 m 1
 2728 1147 l 1
 2728 659 l 1
 2548 393 2229 -41 1561 -41 c 0
 684 -41 180 606 180 1536 c 0
 180 2466 791 3113 1622 3113 c 0
 2146 3113 2626 2712 2626 2208 c 1
 2544 2208 l 1
 2478 2650 2113 3006 1671 3006 c 0
 999 3006 750 2281 750 1536 c 0
 750 791 910 49 1561 49 c 0
 2003 49 2151 389 2200 512 c 1
 2200 1147 l 1
EndSplineSet
EndChar

StartChar: H
Encoding: 72 72 19
GlifName: H_
Width: 3100
Flags: HMW
LayerCount: 2
Fore
SplineSet
852 1556 m 1
 2269 1556 l 1
 2269 1475 l 1
 852 1475 l 1
 852 1556 l 1
1794 82 m 1
 3043 82 l 1
 3043 0 l 1
 1794 0 l 1
 1794 82 l 1
78 82 m 1
 1327 82 l 1
 1327 0 l 1
 78 0 l 1
 78 82 l 1
1794 3072 m 1
 3043 3072 l 1
 3043 2990 l 1
 1794 2990 l 1
 1794 3072 l 1
78 3072 m 1
 1327 3072 l 1
 1327 2990 l 1
 78 2990 l 1
 78 3072 l 1
2187 3072 m 1
 2675 3072 l 1
 2675 0 l 1
 2187 0 l 1
 2187 3072 l 1
446 3072 m 1
 934 3072 l 1
 934 0 l 1
 446 0 l 1
 446 3072 l 1
EndSplineSet
EndChar

StartChar: I
Encoding: 73 73 20
GlifName: I_
Width: 1564
Flags: HMW
LayerCount: 2
Fore
SplineSet
78 82 m 1
 1507 82 l 1
 1507 0 l 1
 78 0 l 1
 78 82 l 1
78 3072 m 1
 1507 3072 l 1
 1507 2990 l 1
 78 2990 l 1
 78 3072 l 1
528 3072 m 1
 1016 3072 l 1
 1016 0 l 1
 528 0 l 1
 528 3072 l 1
EndSplineSet
EndChar

StartChar: J
Encoding: 74 74 21
GlifName: J_
Width: 1916
Flags: HMW
LayerCount: 2
Fore
SplineSet
430 3072 m 1
 1860 3072 l 1
 1860 2990 l 1
 430 2990 l 1
 430 3072 l 1
963 3072 m 1
 1450 3072 l 1
 1450 696 l 1
 1335 368 1151 -123 614 -123 c 0
 258 -123 57 135 57 381 c 0
 57 578 192 696 348 696 c 0
 483 696 627 599 627 406 c 0
 627 226 496 119 332 119 c 0
 316 119 286 123 270 127 c 1
 323 57 426 -41 606 -41 c 0
 897 -41 963 205 963 778 c 2
 963 3072 l 1
EndSplineSet
Substitution2: "'ss02' Style Set 2 lookup 4-1" J.alt
EndChar

StartChar: K
Encoding: 75 75 22
GlifName: K_
Width: 2924
Flags: HMW
LayerCount: 2
Fore
SplineSet
78 82 m 1
 1327 82 l 1
 1327 0 l 1
 78 0 l 1
 78 82 l 1
78 3072 m 1
 1343 3072 l 1
 1343 2990 l 1
 78 2990 l 1
 78 3072 l 1
446 3072 m 1
 934 3072 l 1
 934 0 l 1
 446 0 l 1
 446 3072 l 1
647 889 m 1
 524 889 l 1
 2236 3064 l 1
 2359 3064 l 1
 647 889 l 1
1556 82 m 1
 2908 82 l 1
 2908 0 l 1
 1556 0 l 1
 1556 82 l 1
2724 2990 m 1
 1741 2990 l 1
 1741 3072 l 1
 2724 3072 l 1
 2724 2990 l 1
2589 0 m 1
 1999 0 l 1
 1114 1573 l 1
 1442 1937 l 1
 2589 0 l 1
EndSplineSet
EndChar

StartChar: L
Encoding: 76 76 23
GlifName: L_
Width: 2408
Flags: HMW
LayerCount: 2
Fore
SplineSet
446 3072 m 1
 934 3072 l 1
 934 0 l 1
 446 0 l 1
 446 3072 l 1
78 3072 m 1
 1303 3072 l 1
 1303 2990 l 1
 78 2990 l 1
 78 3072 l 1
2327 0 m 1
 78 0 l 1
 78 82 l 1
 1483 82 l 2
 2110 82 2220 402 2245 922 c 1
 2327 922 l 1
 2327 0 l 1
EndSplineSet
EndChar

StartChar: M
Encoding: 77 77 24
GlifName: M_
Width: 3469
Flags: HMW
LayerCount: 2
Fore
SplineSet
3412 3072 m 1
 3412 2990 l 1
 3125 2990 l 1
 3125 0 l 1
 2638 0 l 1
 2638 3072 l 1
 3412 3072 l 1
98 82 m 1
 762 82 l 1
 762 0 l 1
 98 0 l 1
 98 82 l 1
2310 82 m 1
 3412 82 l 1
 3412 0 l 1
 2310 0 l 1
 2310 82 l 1
1774 672 m 1
 2589 3072 l 1
 2679 3072 l 1
 1626 -41 l 1
 1536 -41 l 1
 397 3072 l 1
 889 3072 l 1
 1774 672 l 1
385 2990 m 1
 78 2990 l 1
 78 3072 l 1
 475 3072 l 1
 475 0 l 1
 385 0 l 1
 385 2990 l 1
EndSplineSet
EndChar

StartChar: N
Encoding: 78 78 25
GlifName: N_
Width: 3031
Flags: HMW
LayerCount: 2
Fore
SplineSet
2454 3072 m 1
 2544 3072 l 1
 2544 -41 l 1
 2400 -41 l 1
 487 3072 l 1
 1073 3072 l 1
 2454 807 l 1
 2454 3072 l 1
2003 3072 m 1
 2974 3072 l 1
 2974 2990 l 1
 2003 2990 l 1
 2003 3072 l 1
78 82 m 1
 1069 82 l 1
 1069 0 l 1
 78 0 l 1
 78 82 l 1
508 2990 m 1
 78 2990 l 1
 78 3072 l 1
 598 3072 l 1
 598 0 l 1
 508 0 l 1
 508 2990 l 1
EndSplineSet
EndChar

StartChar: O
Encoding: 79 79 26
GlifName: O_
Width: 3026
Flags: HMW
LayerCount: 2
Fore
SplineSet
1524 -41 m 0
 676 -41 180 655 180 1536 c 0
 180 2417 717 3113 1524 3113 c 0
 2331 3113 2867 2417 2867 1536 c 0
 2867 655 2372 -41 1524 -41 c 0
1524 3043 m 0
 910 3043 750 2322 750 1536 c 0
 750 750 869 29 1524 29 c 0
 2179 29 2298 750 2298 1536 c 0
 2298 2322 2138 3043 1524 3043 c 0
EndSplineSet
EndChar

StartChar: P
Encoding: 80 80 27
GlifName: P_
Width: 2596
Flags: HMW
LayerCount: 2
Fore
SplineSet
446 3072 m 1
 934 3072 l 1
 934 0 l 1
 446 0 l 1
 446 3072 l 1
78 82 m 1
 1303 82 l 1
 1303 0 l 1
 78 0 l 1
 78 82 l 1
1368 1352 m 2
 811 1352 l 1
 811 1434 l 1
 1335 1434 l 2
 1712 1434 1909 1847 1909 2212 c 0
 1909 2577 1712 2990 1335 2990 c 2
 78 2990 l 1
 78 3072 l 1
 1368 3072 l 2
 2126 3072 2458 2744 2458 2212 c 0
 2458 1680 2126 1352 1368 1352 c 2
EndSplineSet
EndChar

StartChar: Q
Encoding: 81 81 28
GlifName: Q_
Width: 3026
Flags: HMW
LayerCount: 2
Fore
SplineSet
1524 -41 m 0
 676 -41 180 655 180 1536 c 0
 180 2417 717 3113 1524 3113 c 0
 2331 3113 2867 2417 2867 1536 c 0
 2867 655 2372 -41 1524 -41 c 0
1524 3043 m 0
 910 3043 750 2322 750 1536 c 0
 750 750 869 29 1524 29 c 0
 2179 29 2298 750 2298 1536 c 0
 2298 2322 2138 3043 1524 3043 c 0
2269 -942 m 1
 2269 -1024 l 1
 1339 -1024 1229 -742 1229 8 c 1
 1295 0 1732 0 1798 8 c 1
 1798 -737 1868 -942 2269 -942 c 1
EndSplineSet
EndChar

StartChar: R
Encoding: 82 82 29
GlifName: R_
Width: 2920
Flags: HMW
LayerCount: 2
Fore
SplineSet
1462 1565 m 2
 815 1565 l 1
 815 1618 l 1
 1421 1618 l 2
 1814 1618 2028 1851 2028 2314 c 0
 2028 2777 1814 2990 1421 2990 c 2
 78 2990 l 1
 78 3072 l 1
 1462 3072 l 2
 2105 3072 2535 2846 2535 2314 c 0
 2535 1782 2146 1565 1462 1565 c 2
78 82 m 1
 1434 82 l 1
 1434 0 l 1
 78 0 l 1
 78 82 l 1
512 3072 m 1
 999 3072 l 1
 999 0 l 1
 512 0 l 1
 512 3072 l 1
2884 45 m 1
 2818 8 2646 -25 2466 -25 c 0
 1446 -25 2417 1536 1409 1536 c 2
 815 1536 l 1
 815 1577 l 1
 1589 1577 l 2
 2969 1577 2154 82 2658 82 c 0
 2744 82 2802 98 2859 123 c 1
 2884 45 l 1
EndSplineSet
Substitution2: "'ss01' Style Set 1 lookup 2-1" R.alt
EndChar

StartChar: S
Encoding: 83 83 30
GlifName: S_
Width: 2351
Flags: HMW
LayerCount: 2
Fore
SplineSet
2028 2241 m 1
 1946 2241 l 1
 1831 2728 1528 3019 1135 3019 c 0
 766 3019 565 2818 565 2511 c 0
 565 1778 2191 1974 2191 844 c 0
 2191 295 1795 -61 1217 -61 c 0
 578 -61 303 356 180 848 c 1
 262 848 l 1
 368 442 648 29 1176 29 c 0
 1594 29 1847 262 1847 643 c 0
 1847 1458 221 1217 221 2331 c 0
 221 2806 631 3113 1094 3113 c 0
 1586 3113 1913 2819 2028 2241 c 1
1966 3113 m 1
 2028 3113 l 1
 2028 2241 l 1
 1724 2843 l 1
 1966 3113 l 1
242 -41 m 1
 180 -41 l 1
 180 848 l 1
 479 246 l 1
 242 -41 l 1
EndSplineSet
EndChar

StartChar: T
Encoding: 84 84 31
GlifName: T_
Width: 2654
Flags: HMW
LayerCount: 2
Fore
SplineSet
643 82 m 1
 2032 82 l 1
 2032 0 l 1
 643 0 l 1
 643 82 l 1
1094 3031 m 1
 1581 3031 l 1
 1581 0 l 1
 1094 0 l 1
 1094 3031 l 1
1933 2990 m 2
 741 2990 l 2
 278 2990 185 2646 160 2126 c 1
 78 2126 l 1
 78 3072 l 1
 2597 3072 l 1
 2597 2126 l 1
 2515 2126 l 1
 2490 2646 2396 2990 1933 2990 c 2
EndSplineSet
EndChar

StartChar: U
Encoding: 85 85 32
GlifName: U_
Width: 2887
Flags: HMW
LayerCount: 2
Fore
SplineSet
2032 3072 m 1
 2830 3072 l 1
 2830 2990 l 1
 2032 2990 l 1
 2032 3072 l 1
78 3072 m 1
 1343 3072 l 1
 1343 2990 l 1
 78 2990 l 1
 78 3072 l 1
2380 3072 m 1
 2462 3072 l 1
 2462 942 l 2
 2462 266 2158 -61 1503 -61 c 0
 770 -61 446 233 446 942 c 2
 446 3072 l 1
 934 3072 l 1
 934 983 l 2
 934 442 1053 49 1618 49 c 0
 2060 49 2380 319 2380 942 c 2
 2380 3072 l 1
EndSplineSet
EndChar

StartChar: V
Encoding: 86 86 33
GlifName: V_
Width: 3043
Flags: HMW
LayerCount: 2
Fore
SplineSet
3006 2990 m 1
 2105 2990 l 1
 2105 3072 l 1
 3006 3072 l 1
 3006 2990 l 1
1360 2990 m 1
 57 2990 l 1
 57 3072 l 1
 1360 3072 l 1
 1360 2990 l 1
1724 553 m 1
 2601 3072 l 1
 2703 3072 l 1
 1593 -61 l 1
 1430 -61 l 1
 344 3072 l 1
 909 3072 l 1
 1724 553 l 1
EndSplineSet
EndChar

StartChar: W
Encoding: 87 87 34
GlifName: W_
Width: 4198
Flags: HMW
LayerCount: 2
Fore
SplineSet
2286 1946 m 1
 1606 -41 l 1
 1438 -41 l 1
 406 3072 l 1
 942 3072 l 1
 1737 635 l 1
 2220 2036 l 1
 2286 1946 l 1
2433 1929 m 1
 2363 2019 l 1
 2732 3072 l 1
 2830 3072 l 1
 2433 1929 l 1
4162 2990 m 1
 3342 2990 l 1
 3342 3072 l 1
 4162 3072 l 1
 4162 2990 l 1
2081 3072 m 1
 2879 635 l 1
 3719 3072 l 1
 3817 3072 l 1
 2748 -41 l 1
 2605 -41 l 1
 1573 3072 l 1
 2081 3072 l 1
3146 2990 m 1
 57 2990 l 1
 57 3072 l 1
 3146 3072 l 1
 3146 2990 l 1
EndSplineSet
EndChar

StartChar: X
Encoding: 88 88 35
GlifName: X_
Width: 3100
Flags: HMW
LayerCount: 2
Fore
SplineSet
1593 1544 m 1
 1470 1544 l 1
 2392 3064 l 1
 2494 3064 l 1
 1593 1544 l 1
524 0 m 1
 410 0 l 1
 1495 1708 l 1
 1606 1708 l 1
 524 0 l 1
1819 82 m 1
 3064 82 l 1
 3064 0 l 1
 1819 0 l 1
 1819 82 l 1
57 82 m 1
 1040 82 l 1
 1040 0 l 1
 57 0 l 1
 57 82 l 1
1446 2990 m 1
 201 2990 l 1
 201 3072 l 1
 1446 3072 l 1
 1446 2990 l 1
2839 2990 m 1
 1937 2990 l 1
 1937 3072 l 1
 2839 3072 l 1
 2839 2990 l 1
2802 0 m 1
 2212 0 l 1
 446 3072 l 1
 1020 3072 l 1
 2802 0 l 1
EndSplineSet
EndChar

StartChar: Y
Encoding: 89 89 36
GlifName: Y_
Width: 2949
Flags: HMW
LayerCount: 2
Fore
SplineSet
2912 2990 m 1
 2052 2990 l 1
 2052 3072 l 1
 2912 3072 l 1
 2912 2990 l 1
1343 2990 m 1
 57 2990 l 1
 57 3072 l 1
 1343 3072 l 1
 1343 2990 l 1
913 82 m 1
 2179 82 l 1
 2179 0 l 1
 913 0 l 1
 913 82 l 1
1720 1663 m 1
 2548 3064 l 1
 2650 3064 l 1
 1769 1569 l 1
 1769 0 l 1
 1282 0 l 1
 1282 1475 l 1
 303 3072 l 1
 868 3072 l 1
 1720 1663 l 1
EndSplineSet
EndChar

StartChar: Z
Encoding: 90 90 37
GlifName: Z_
Width: 2383
Flags: HMW
LayerCount: 2
Fore
SplineSet
139 3072 m 1
 2204 3072 l 1
 2204 2990 l 1
 602 82 l 1
 1458 82 l 2
 2019 82 2130 283 2163 803 c 1
 2245 803 l 1
 2245 0 l 1
 57 0 l 1
 57 82 l 1
 1659 2990 l 1
 926 2990 l 2
 365 2990 254 2789 221 2351 c 1
 139 2351 l 1
 139 3072 l 1
EndSplineSet
EndChar

StartChar: a
Encoding: 97 97 38
GlifName: a
Width: 2265
VWidth: 4730
Flags: HMW
LayerCount: 2
Fore
SplineSet
2245 258 m 1
 2151 53 1962 -41 1761 -41 c 0
 1544 -41 1343 57 1343 307 c 2
 1343 1249 l 2
 1343 1540 1290 1819 971 1819 c 0
 807 1819 692 1774 635 1729 c 1
 725 1713 856 1655 856 1499 c 0
 856 1327 700 1241 573 1241 c 0
 426 1241 319 1335 319 1491 c 0
 319 1749 676 1917 1065 1917 c 0
 1704 1917 1794 1597 1794 1249 c 2
 1794 254 l 2
 1794 172 1848 111 1946 111 c 0
 2020 111 2105 152 2183 291 c 1
 2245 258 l 1
1073 1069 m 2
 1556 1069 l 1
 1556 987 l 1
 1130 987 l 2
 843 987 676 782 676 528 c 0
 676 311 757 139 958 139 c 0
 1159 139 1343 327 1343 741 c 1
 1405 741 l 1
 1405 233 1184 -41 729 -41 c 0
 405 -41 176 160 176 463 c 0
 176 807 491 1069 1073 1069 c 2
EndSplineSet
EndChar

StartChar: b
Encoding: 98 98 39
GlifName: b
Width: 2494
VWidth: 4730
Flags: HMW
LayerCount: 2
Fore
SplineSet
770 942 m 0
 770 1565 1015 1921 1470 1921 c 0
 1916 1921 2339 1556 2339 942 c 0
 2339 328 1916 -41 1470 -41 c 0
 1015 -41 770 319 770 942 c 0
831 942 m 0
 831 369 1094 86 1360 86 c 0
 1663 86 1819 377 1819 942 c 0
 1819 1507 1663 1794 1360 1794 c 0
 1094 1794 831 1515 831 942 c 0
381 2990 m 1
 94 2990 l 1
 94 3072 l 1
 831 3072 l 1
 831 0 l 1
 94 0 l 1
 94 82 l 1
 381 82 l 1
 381 2990 l 1
EndSplineSet
EndChar

StartChar: c
Encoding: 99 99 40
GlifName: c
Width: 2064
VWidth: 4730
Flags: HMW
LayerCount: 2
Fore
SplineSet
1663 1614 m 1
 1618 1712 1438 1839 1200 1839 c 0
 754 1839 684 1327 684 942 c 0
 684 475 790 61 1204 61 c 0
 1503 61 1692 287 1794 586 c 1
 1884 586 l 1
 1778 230 1552 -41 1122 -41 c 0
 561 -41 156 311 156 942 c 0
 156 1491 504 1925 1147 1925 c 0
 1573 1925 1864 1687 1864 1384 c 0
 1864 1200 1740 1102 1593 1102 c 0
 1466 1102 1319 1175 1319 1368 c 0
 1319 1536 1450 1626 1577 1626 c 0
 1622 1626 1651 1618 1663 1614 c 1
EndSplineSet
EndChar

StartChar: d
Encoding: 100 100 41
GlifName: d
Width: 2494
VWidth: 4730
Flags: HMW
LayerCount: 2
Fore
SplineSet
1724 942 m 0
 1724 319 1479 -41 1024 -41 c 0
 578 -41 156 328 156 942 c 0
 156 1556 578 1921 1024 1921 c 0
 1479 1921 1724 1565 1724 942 c 0
1663 942 m 0
 1663 1532 1393 1794 1135 1794 c 0
 832 1794 676 1515 676 942 c 0
 676 369 840 94 1143 94 c 0
 1401 94 1663 352 1663 942 c 0
2400 82 m 1
 2400 0 l 1
 1663 0 l 1
 1663 2990 l 1
 1376 2990 l 1
 1376 3072 l 1
 2114 3072 l 1
 2114 82 l 1
 2400 82 l 1
EndSplineSet
EndChar

StartChar: e
Encoding: 101 101 42
GlifName: e
Width: 2125
VWidth: 4730
Flags: HMW
LayerCount: 2
Fore
SplineSet
430 1028 m 1
 430 1110 l 1
 1483 1110 l 1
 1479 1405 1442 1843 1118 1843 c 0
 762 1843 668 1425 668 958 c 0
 668 466 782 49 1204 49 c 0
 1556 49 1807 287 1909 586 c 1
 1991 586 l 1
 1885 230 1601 -41 1130 -41 c 0
 577 -41 156 319 156 942 c 0
 156 1565 565 1925 1118 1925 c 0
 1728 1925 1987 1474 1987 1028 c 1
 430 1028 l 1
EndSplineSet
EndChar

StartChar: f
Encoding: 102 102 43
GlifName: f
Width: 1531
VWidth: 4730
Flags: HMW
LayerCount: 2
Fore
SplineSet
74 82 m 1
 1376 82 l 1
 1376 0 l 1
 74 0 l 1
 74 82 l 1
74 1884 m 1
 1458 1884 l 1
 1458 1802 l 1
 74 1802 l 1
 74 1884 l 1
1667 2904 m 1
 1626 2953 1532 3031 1331 3031 c 0
 1003 3031 885 2732 885 2212 c 2
 885 0 l 1
 442 0 l 1
 442 2097 l 2
 442 2650 766 3113 1323 3113 c 0
 1663 3113 1851 2892 1851 2683 c 0
 1851 2499 1732 2396 1585 2396 c 0
 1458 2396 1315 2470 1315 2650 c 0
 1315 2826 1445 2916 1597 2916 c 0
 1630 2916 1667 2904 1667 2904 c 1
EndSplineSet
EndChar

StartChar: g
Encoding: 103 103 44
GlifName: g
Width: 2445
VWidth: 4730
Flags: HMW
LayerCount: 2
Fore
SplineSet
225 303 m 0
 225 622 676 725 1065 725 c 1
 1057 688 l 1
 881 688 537 619 537 451 c 0
 537 312 717 307 942 307 c 0
 1085 307 1142 311 1257 311 c 0
 1564 311 1917 221 1917 -336 c 0
 1917 -832 1508 -1065 1016 -1065 c 0
 545 -1065 94 -909 94 -520 c 0
 94 -147 488 -33 672 -33 c 2
 713 -33 l 1
 545 -127 524 -303 524 -418 c 0
 524 -713 672 -971 1049 -971 c 0
 1430 -971 1696 -807 1696 -438 c 0
 1696 -217 1544 -78 1278 -78 c 0
 1184 -78 967 -78 877 -78 c 0
 508 -78 225 24 225 303 c 0
668 1290 m 0
 668 971 688 737 971 737 c 0
 1180 737 1274 971 1274 1290 c 0
 1274 1609 1180 1843 971 1843 c 0
 762 1843 668 1609 668 1290 c 0
197 1290 m 0
 197 1741 615 1925 971 1925 c 0
 1327 1925 1745 1741 1745 1290 c 0
 1745 839 1327 655 971 655 c 0
 615 655 197 839 197 1290 c 0
2224 1741 m 1
 2183 1807 2109 1823 2019 1823 c 0
 1855 1823 1647 1728 1565 1372 c 1
 1495 1421 l 1
 1577 1794 1839 1905 2019 1905 c 0
 2252 1905 2372 1749 2372 1593 c 0
 2372 1392 2253 1327 2142 1327 c 0
 2031 1327 1917 1400 1917 1552 c 0
 1917 1675 2003 1765 2130 1765 c 0
 2179 1765 2208 1749 2224 1741 c 1
EndSplineSet
EndChar

StartChar: h
Encoding: 104 104 45
GlifName: h
Width: 2461
VWidth: 4730
Flags: HMW
LayerCount: 2
Fore
SplineSet
1630 1262 m 2
 1630 1606 1540 1774 1335 1774 c 0
 991 1774 831 1335 831 913 c 1
 770 913 l 1
 770 1331 881 1925 1499 1925 c 0
 1970 1925 2081 1663 2081 1307 c 2
 2081 0 l 1
 1630 0 l 1
 1630 1262 l 2
1368 82 m 1
 2367 82 l 1
 2367 0 l 1
 1368 0 l 1
 1368 82 l 1
94 82 m 1
 1094 82 l 1
 1094 0 l 1
 94 0 l 1
 94 82 l 1
381 2990 m 1
 94 2990 l 1
 94 3072 l 1
 831 3072 l 1
 831 0 l 1
 381 0 l 1
 381 2990 l 1
EndSplineSet
EndChar

StartChar: i
Encoding: 105 105 46
GlifName: i
Width: 1241
VWidth: 4730
Flags: HMW
LayerCount: 2
Fore
SplineSet
115 82 m 1
 1139 82 l 1
 1139 0 l 1
 115 0 l 1
 115 82 l 1
299 2826 m 0
 299 2986 426 3113 586 3113 c 0
 746 3113 872 2986 872 2826 c 0
 872 2666 746 2540 586 2540 c 0
 426 2540 299 2666 299 2826 c 0
401 1802 m 1
 115 1802 l 1
 115 1884 l 1
 852 1884 l 1
 852 0 l 1
 401 0 l 1
 401 1802 l 1
EndSplineSet
EndChar

StartChar: j
Encoding: 106 106 47
GlifName: j
Width: 1241
VWidth: 4730
Flags: HMW
LayerCount: 2
Fore
SplineSet
369 2826 m 0
 369 2986 495 3113 655 3113 c 0
 815 3113 942 2986 942 2826 c 0
 942 2666 815 2540 655 2540 c 0
 495 2540 369 2666 369 2826 c 0
913 1884 m 1
 913 -49 l 2
 913 -586 721 -1065 172 -1065 c 0
 -176 -1065 -381 -856 -381 -606 c 0
 -381 -422 -253 -315 -106 -315 c 0
 21 -315 164 -389 164 -569 c 0
 164 -745 33 -831 -135 -831 c 0
 -151 -831 -172 -827 -172 -827 c 1
 -164 -868 -37 -979 143 -979 c 0
 536 -979 463 -438 463 82 c 2
 463 1802 l 1
 94 1802 l 1
 94 1884 l 1
 913 1884 l 1
EndSplineSet
EndChar

StartChar: k
Encoding: 107 107 48
GlifName: k
Width: 2490
VWidth: 4730
Flags: HMW
LayerCount: 2
Fore
SplineSet
2281 0 m 1
 1720 0 l 1
 848 1077 l 1
 1913 1884 l 1
 2048 1884 l 1
 1253 1262 l 1
 2281 0 l 1
1393 82 m 1
 2437 82 l 1
 2437 0 l 1
 1393 0 l 1
 1393 82 l 1
2273 1802 m 1
 1360 1802 l 1
 1360 1884 l 1
 2273 1884 l 1
 2273 1802 l 1
94 82 m 1
 1176 82 l 1
 1176 0 l 1
 94 0 l 1
 94 82 l 1
463 2990 m 1
 94 2990 l 1
 94 3072 l 1
 913 3072 l 1
 913 0 l 1
 463 0 l 1
 463 2990 l 1
EndSplineSet
EndChar

StartChar: l
Encoding: 108 108 49
GlifName: l
Width: 1376
VWidth: 4730
Flags: HMW
LayerCount: 2
Fore
SplineSet
94 82 m 1
 1282 82 l 1
 1282 0 l 1
 94 0 l 1
 94 82 l 1
463 2990 m 1
 94 2990 l 1
 94 3072 l 1
 913 3072 l 1
 913 0 l 1
 463 0 l 1
 463 2990 l 1
EndSplineSet
EndChar

StartChar: m
Encoding: 109 109 50
GlifName: m
Width: 3547
VWidth: 4730
Flags: HMW
LayerCount: 2
Fore
SplineSet
1999 1307 m 2
 1999 0 l 1
 1548 0 l 1
 1548 1262 l 2
 1548 1606 1499 1782 1298 1782 c 0
 983 1782 831 1335 831 913 c 1
 770 913 l 1
 770 1331 872 1925 1458 1925 c 0
 1855 1925 1999 1663 1999 1307 c 2
94 82 m 1
 1090 82 l 1
 1090 0 l 1
 94 0 l 1
 94 82 l 1
1290 82 m 1
 2257 82 l 1
 2257 0 l 1
 1290 0 l 1
 1290 82 l 1
2458 82 m 1
 3453 82 l 1
 3453 0 l 1
 2458 0 l 1
 2458 82 l 1
381 1802 m 1
 94 1802 l 1
 94 1884 l 1
 831 1884 l 1
 831 0 l 1
 381 0 l 1
 381 1802 l 1
3166 1307 m 2
 3166 0 l 1
 2716 0 l 1
 2716 1262 l 2
 2716 1606 2634 1782 2433 1782 c 0
 2101 1782 1999 1335 1999 913 c 1
 1929 913 l 1
 1929 1331 1970 1925 2593 1925 c 0
 2990 1925 3166 1663 3166 1307 c 2
EndSplineSet
EndChar

StartChar: n
Encoding: 110 110 51
GlifName: n
Width: 2461
VWidth: 4730
Flags: HMW
LayerCount: 2
Fore
SplineSet
1630 1262 m 2
 1630 1606 1540 1774 1335 1774 c 0
 1028 1774 831 1335 831 913 c 1
 770 913 l 1
 770 1331 913 1925 1499 1925 c 0
 1937 1925 2081 1663 2081 1307 c 2
 2081 0 l 1
 1630 0 l 1
 1630 1262 l 2
1368 82 m 1
 2367 82 l 1
 2367 0 l 1
 1368 0 l 1
 1368 82 l 1
94 82 m 1
 1094 82 l 1
 1094 0 l 1
 94 0 l 1
 94 82 l 1
381 1802 m 1
 94 1802 l 1
 94 1884 l 1
 831 1884 l 1
 831 0 l 1
 381 0 l 1
 381 1802 l 1
EndSplineSet
EndChar

StartChar: o
Encoding: 111 111 52
GlifName: o
Width: 2236
VWidth: 4730
Flags: HMW
LayerCount: 2
Fore
SplineSet
659 942 m 0
 659 516 729 41 1118 41 c 0
 1507 41 1577 516 1577 942 c 0
 1577 1368 1507 1843 1118 1843 c 0
 729 1843 659 1368 659 942 c 0
156 942 m 0
 156 1474 524 1925 1118 1925 c 0
 1712 1925 2081 1474 2081 942 c 0
 2081 410 1712 -41 1118 -41 c 0
 524 -41 156 410 156 942 c 0
EndSplineSet
EndChar

StartChar: p
Encoding: 112 112 53
GlifName: p
Width: 2494
VWidth: 4730
Flags: HMW
LayerCount: 2
Fore
SplineSet
770 942 m 0
 770 1565 1015 1921 1470 1921 c 0
 1916 1921 2339 1556 2339 942 c 0
 2339 328 1916 -41 1470 -41 c 0
 1015 -41 770 319 770 942 c 0
831 942 m 0
 831 352 1106 86 1356 86 c 0
 1667 86 1819 393 1819 942 c 0
 1819 1491 1671 1794 1360 1794 c 0
 1102 1794 831 1532 831 942 c 0
94 -942 m 1
 1118 -942 l 1
 1118 -1024 l 1
 94 -1024 l 1
 94 -942 l 1
381 1802 m 1
 94 1802 l 1
 94 1884 l 1
 831 1884 l 1
 831 -1024 l 1
 381 -1024 l 1
 381 1802 l 1
EndSplineSet
EndChar

StartChar: q
Encoding: 113 113 54
GlifName: q
Width: 2494
VWidth: 4730
Flags: HMW
LayerCount: 2
Fore
SplineSet
1724 942 m 0
 1724 319 1479 -41 1024 -41 c 0
 578 -41 156 328 156 942 c 0
 156 1556 578 1921 1024 1921 c 0
 1479 1921 1724 1565 1724 942 c 0
1663 942 m 0
 1663 1532 1393 1794 1135 1794 c 0
 832 1794 676 1491 676 942 c 0
 676 393 832 94 1135 94 c 0
 1409 94 1663 352 1663 942 c 0
2400 -942 m 1
 2400 -1024 l 1
 1376 -1024 l 1
 1376 -942 l 1
 2400 -942 l 1
2400 1884 m 1
 2400 1802 l 1
 2114 1802 l 1
 2114 -1024 l 1
 1663 -1024 l 1
 1663 1884 l 1
 2400 1884 l 1
EndSplineSet
EndChar

StartChar: r
Encoding: 114 114 55
GlifName: r
Width: 1810
VWidth: 4730
Flags: HMW
LayerCount: 2
Fore
SplineSet
1507 1802 m 1
 1462 1835 1404 1839 1343 1839 c 0
 954 1839 831 1314 831 913 c 1
 770 913 l 1
 770 1413 881 1925 1352 1925 c 0
 1557 1925 1761 1777 1761 1552 c 0
 1761 1392 1663 1262 1483 1262 c 0
 1323 1262 1200 1356 1200 1528 c 0
 1200 1704 1360 1802 1507 1802 c 1
94 82 m 1
 1118 82 l 1
 1118 0 l 1
 94 0 l 1
 94 82 l 1
381 1802 m 1
 94 1802 l 1
 94 1884 l 1
 831 1884 l 1
 831 0 l 1
 381 0 l 1
 381 1802 l 1
EndSplineSet
EndChar

StartChar: s
Encoding: 115 115 56
GlifName: s
Width: 1794
VWidth: 4730
Flags: HMW
LayerCount: 2
Fore
SplineSet
1442 1511 m 1
 1266 1712 l 1
 1462 1925 l 1
 1524 1925 l 1
 1524 1352 l 1
 1442 1352 l 1
 1442 1511 l 1
1503 1352 m 1
 1442 1352 l 1
 1376 1569 1159 1831 827 1831 c 0
 680 1831 455 1745 455 1536 c 0
 455 1151 1659 1335 1659 590 c 0
 1659 201 1331 -41 942 -41 c 0
 549 -41 250 213 197 557 c 1
 258 557 l 1
 364 274 610 49 901 49 c 0
 1139 49 1376 144 1376 377 c 0
 1376 848 225 578 225 1356 c 0
 225 1643 434 1921 823 1921 c 0
 1224 1921 1470 1622 1503 1352 c 1
238 -41 m 1
 176 -41 l 1
 176 557 l 1
 258 557 l 1
 258 422 l 1
 434 180 l 1
 238 -41 l 1
EndSplineSet
EndChar

StartChar: t
Encoding: 116 116 57
GlifName: t
Width: 1396
VWidth: 4730
Flags: HMW
LayerCount: 2
Fore
SplineSet
53 1884 m 1
 1241 1884 l 1
 1241 1802 l 1
 53 1802 l 1
 53 1884 l 1
1364 418 m 1
 1266 156 1049 -29 766 -29 c 0
 406 -29 352 213 352 463 c 2
 352 2294 l 1
 499 2294 697 2347 803 2417 c 1
 803 393 l 2
 803 188 847 127 958 127 c 0
 1073 127 1216 266 1290 446 c 1
 1364 418 l 1
EndSplineSet
EndChar

StartChar: u
Encoding: 117 117 58
GlifName: u
Width: 2461
VWidth: 4730
Flags: HMW
LayerCount: 2
Fore
SplineSet
831 1884 m 1
 831 623 l 2
 831 279 921 111 1126 111 c 0
 1433 111 1630 549 1630 971 c 1
 1692 971 l 1
 1692 553 1549 -41 963 -41 c 0
 525 -41 381 222 381 578 c 2
 381 1802 l 1
 94 1802 l 1
 94 1884 l 1
 831 1884 l 1
2081 82 m 1
 2367 82 l 1
 2367 0 l 1
 1630 0 l 1
 1630 1802 l 1
 1352 1802 l 1
 1352 1884 l 1
 2081 1884 l 1
 2081 82 l 1
EndSplineSet
EndChar

StartChar: v
Encoding: 118 118 59
GlifName: v
Width: 2289
VWidth: 4730
Flags: HMW
LayerCount: 2
Fore
SplineSet
2277 1802 m 1
 1483 1802 l 1
 1483 1884 l 1
 2277 1884 l 1
 2277 1802 l 1
1147 1802 m 1
 12 1802 l 1
 12 1884 l 1
 1147 1884 l 1
 1147 1802 l 1
1319 451 m 1
 1884 1884 l 1
 1995 1884 l 1
 1225 -41 l 1
 1069 -41 l 1
 279 1884 l 1
 778 1884 l 1
 1319 451 l 1
EndSplineSet
EndChar

StartChar: w
Encoding: 119 119 60
GlifName: w
Width: 3231
VWidth: 4730
Flags: HMW
LayerCount: 2
Fore
SplineSet
1130 1802 m 1
 12 1802 l 1
 12 1884 l 1
 1130 1884 l 1
 1130 1802 l 1
3219 1802 m 1
 2343 1802 l 1
 2343 1884 l 1
 3219 1884 l 1
 3219 1802 l 1
1167 483 m 1
 1729 1925 l 1
 1921 1925 l 1
 2351 549 l 1
 2793 1884 l 1
 2896 1884 l 1
 2253 -41 l 1
 2093 -41 l 1
 1610 1352 l 1
 1065 -41 l 1
 905 -41 l 1
 279 1884 l 1
 754 1884 l 1
 1167 483 l 1
EndSplineSet
EndChar

StartChar: x
Encoding: 120 120 61
GlifName: x
Width: 2334
VWidth: 4730
Flags: HMW
LayerCount: 2
Fore
SplineSet
1245 82 m 1
 2281 82 l 1
 2281 0 l 1
 1245 0 l 1
 1245 82 l 1
53 82 m 1
 860 82 l 1
 860 0 l 1
 53 0 l 1
 53 82 l 1
1167 1802 m 1
 86 1802 l 1
 86 1884 l 1
 1167 1884 l 1
 1167 1802 l 1
2224 1802 m 1
 1446 1802 l 1
 1446 1884 l 1
 2224 1884 l 1
 2224 1802 l 1
2097 0 m 1
 1556 0 l 1
 311 1884 l 1
 844 1884 l 1
 2097 0 l 1
373 0 m 1
 258 0 l 1
 1864 1884 l 1
 1978 1884 l 1
 373 0 l 1
EndSplineSet
EndChar

StartChar: y
Encoding: 121 121 62
GlifName: y
Width: 2351
VWidth: 4730
Flags: HMW
LayerCount: 2
Fore
SplineSet
1171 1802 m 1
 4 1802 l 1
 4 1884 l 1
 1171 1884 l 1
 1171 1802 l 1
2380 1802 m 1
 1614 1802 l 1
 1614 1884 l 1
 2380 1884 l 1
 2380 1802 l 1
1462 434 m 1
 1200 -78 l 1
 242 1884 l 1
 758 1884 l 1
 1462 434 l 1
864 -721 m 1
 2048 1884 l 1
 2159 1884 l 1
 938 -795 l 2
 856 -967 778 -1073 614 -1073 c 0
 487 -1073 344 -987 344 -815 c 0
 344 -663 454 -549 610 -549 c 0
 741 -549 839 -635 864 -721 c 1
EndSplineSet
EndChar

StartChar: z
Encoding: 122 122 63
GlifName: z
Width: 1892
VWidth: 4730
Flags: HMW
LayerCount: 2
Fore
SplineSet
819 1802 m 2
 385 1802 295 1594 270 1180 c 1
 188 1180 l 1
 188 1884 l 1
 1733 1884 l 1
 1733 1802 l 1
 598 82 l 1
 1073 82 l 2
 1601 82 1691 246 1716 754 c 1
 1798 754 l 1
 1798 0 l 1
 74 0 l 1
 74 82 l 1
 1204 1802 l 1
 819 1802 l 2
EndSplineSet
EndChar

StartChar: comma
Encoding: 44 44 65
GlifName: comma
Width: 978
Flags: HMW
LayerCount: 2
Fore
SplineSet
164 250 m 0
 164 410 307 541 487 541 c 0
 671 541 823 390 823 66 c 0
 823 -270 574 -639 156 -639 c 1
 156 -557 l 1
 459 -557 708 -332 737 98 c 1
 647 -17 524 -41 430 -41 c 0
 270 -41 164 90 164 250 c 0
EndSplineSet
EndChar

StartChar: exclam
Encoding: 33 33 67
GlifName: exclam
Width: 1409
Flags: HMW
LayerCount: 2
Fore
SplineSet
991 2666 m 0
 946 1994 741 1507 741 934 c 1
 659 934 l 1
 659 1507 455 1994 410 2666 c 0
 410 2695 410 2719 410 2744 c 0
 410 2949 483 3105 700 3105 c 0
 917 3105 995 2949 995 2744 c 0
 995 2719 991 2695 991 2666 c 0
EndSplineSet
Refer: 1 46 S 1 0 0 1 246 0 2
EndChar

StartChar: quotesingle
Encoding: 39 39 70
GlifName: quotesingle
Width: 917
Flags: HMW
LayerCount: 2
Fore
SplineSet
709 2757 m 24
 664 2450 500 2393 500 1942 c 1
 418 1942 l 1
 418 2393 254 2450 209 2757 c 24
 205 2786 205 2805 205 2830 c 0
 205 3006 316 3113 459 3113 c 0
 602 3113 713 3006 713 2830 c 0
 713 2805 713 2786 709 2757 c 24
EndSplineSet
EndChar

StartChar: question
Encoding: 63 63 75
GlifName: question
Width: 2310
Flags: HMW
LayerCount: 2
Fore
SplineSet
979 1446 m 1
 1393 1573 1593 1913 1593 2294 c 0
 1593 2679 1504 3019 1049 3019 c 0
 721 3019 450 2769 401 2613 c 1
 417 2617 455 2638 516 2638 c 0
 659 2638 795 2544 795 2380 c 0
 795 2196 655 2109 520 2109 c 0
 364 2109 246 2216 246 2404 c 0
 246 2748 630 3113 1122 3113 c 0
 1716 3113 2105 2786 2105 2294 c 0
 2105 1823 1679 1430 1061 1393 c 1
 1061 913 l 1
 979 913 l 1
 979 1446 l 1
EndSplineSet
Refer: 1 46 S 1 0 0 1 594 0 2
EndChar

StartChar: parenleft
Encoding: 40 40 76
GlifName: parenleft
Width: 1499
Flags: HMW
LayerCount: 2
Fore
SplineSet
1458 -627 m 1
 1421 -696 l 1
 753 -409 266 377 266 1331 c 0
 266 2285 753 2990 1421 3277 c 1
 1458 3207 l 1
 991 2904 754 2117 754 1331 c 0
 754 545 991 -324 1458 -627 c 1
EndSplineSet
EndChar

StartChar: at
Encoding: 64 64 79
GlifName: at
Width: 4136
VWidth: 4730
Flags: HMW
LayerCount: 2
Fore
SplineSet
2519 1458 m 0
 2519 794 2154 287 1720 287 c 0
 1380 287 1098 516 1098 942 c 0
 1098 1556 1561 2167 2073 2167 c 0
 2413 2167 2519 1794 2519 1458 c 0
2454 1417 m 0
 2454 1589 2408 2028 2175 2028 c 0
 1905 2028 1610 1491 1610 983 c 0
 1610 709 1672 430 1901 430 c 0
 2126 430 2454 893 2454 1417 c 0
2359 860 m 2
 2654 2130 l 1
 3121 2130 l 1
 2826 860 l 2
 2806 778 2654 385 2937 385 c 0
 3416 385 3830 1011 3830 1642 c 0
 3830 2367 3391 3154 2392 3154 c 0
 1249 3154 307 2101 307 864 c 0
 307 -353 1003 -795 1716 -795 c 0
 2388 -795 2785 -602 3154 -201 c 1
 3215 -262 l 1
 2871 -663 2384 -877 1716 -877 c 0
 966 -877 225 -418 225 864 c 0
 225 2146 1196 3236 2396 3236 c 0
 3432 3236 3912 2392 3912 1642 c 0
 3912 978 3531 279 2806 279 c 0
 2392 279 2302 606 2359 860 c 2
EndSplineSet
EndChar

StartChar: dollar
Encoding: 36 36 80
GlifName: dollar
Width: 2338
Flags: HMW
LayerCount: 2
Fore
SplineSet
1257 3400 m 1
 1360 3400 l 1
 1360 -328 l 1
 1257 -328 l 1
 1257 3400 l 1
905 3400 m 1
 1008 3400 l 1
 1008 -328 l 1
 905 -328 l 1
 905 3400 l 1
1901 2658 m 1
 1840 2822 1577 3019 1225 3019 c 0
 824 3019 582 2818 582 2511 c 0
 582 1778 2175 2007 2175 877 c 0
 2175 304 1794 -61 1192 -61 c 0
 487 -61 119 327 119 610 c 0
 119 815 237 971 434 971 c 0
 573 971 721 865 721 668 c 0
 721 488 561 385 414 385 c 0
 348 385 299 402 274 414 c 1
 409 258 623 29 1151 29 c 0
 1585 29 1831 262 1831 643 c 0
 1831 1458 238 1184 238 2298 c 0
 238 2798 696 3113 1192 3113 c 0
 1643 3113 2077 2826 2077 2478 c 0
 2077 2273 1962 2126 1765 2126 c 0
 1626 2126 1479 2224 1479 2417 c 0
 1479 2593 1622 2703 1769 2703 c 0
 1814 2703 1872 2678 1901 2658 c 1
EndSplineSet
EndChar

StartChar: numbersign
Encoding: 35 35 81
GlifName: numbersign
Width: 2580
Flags: HMW
LayerCount: 2
Fore
SplineSet
123 1085 m 1
 2335 1085 l 1
 2335 1004 l 1
 123 1004 l 1
 123 1085 l 1
246 2130 m 1
 2458 2130 l 1
 2458 2048 l 1
 246 2048 l 1
 246 2130 l 1
1843 3088 m 1
 1925 3092 l 1
 1516 -20 l 1
 1434 -25 l 1
 1843 3088 l 1
1024 3092 m 1
 1106 3092 l 1
 696 -20 l 1
 614 -20 l 1
 1024 3092 l 1
EndSplineSet
EndChar

StartChar: slash
Encoding: 47 47 82
GlifName: slash
Width: 2129
Flags: HMW
LayerCount: 2
Fore
SplineSet
1884 3195 m 1
 1966 3195 l 1
 246 -614 l 1
 164 -614 l 1
 1884 3195 l 1
EndSplineSet
EndChar

StartChar: percent
Encoding: 37 37 83
GlifName: percent
Width: 4128
Flags: HMW
LayerCount: 2
Fore
SplineSet
2806 860 m 0
 2806 401 2871 41 3133 41 c 0
 3395 41 3461 401 3461 860 c 0
 3461 1319 3395 1679 3133 1679 c 0
 2871 1679 2806 1319 2806 860 c 0
2281 860 m 0
 2281 1446 2670 1761 3133 1761 c 0
 3596 1761 3985 1446 3985 860 c 0
 3985 274 3514 -41 3133 -41 c 0
 2670 -41 2281 274 2281 860 c 0
3047 3072 m 1
 3150 3072 l 1
 1081 0 l 1
 979 0 l 1
 3047 3072 l 1
668 2212 m 0
 668 1753 733 1393 995 1393 c 0
 1257 1393 1323 1753 1323 2212 c 0
 1323 2671 1257 3031 995 3031 c 0
 733 3031 668 2671 668 2212 c 0
143 2212 m 0
 143 2798 532 3113 995 3113 c 0
 1458 3113 1847 2798 1847 2212 c 0
 1847 1626 1376 1311 995 1311 c 0
 532 1311 143 1626 143 2212 c 0
EndSplineSet
EndChar

StartChar: hyphen
Encoding: 45 45 85
GlifName: hyphen
Width: 1474
Flags: HMW
LayerCount: 2
Fore
SplineSet
246 1167 m 1
 1229 1167 l 1
 1229 1085 l 1
 246 1085 l 1
 246 1167 l 1
EndSplineSet
EndChar

StartChar: plus
Encoding: 43 43 87
GlifName: plus
Width: 2170
Flags: HMW
LayerCount: 2
Fore
SplineSet
1044 451 m 1
 1044 2130 l 1
 1126 2130 l 1
 1126 451 l 1
 1044 451 l 1
246 1335 m 1
 1925 1335 l 1
 1925 1253 l 1
 246 1253 l 1
 246 1335 l 1
EndSplineSet
EndChar

StartChar: less
Encoding: 60 60 89
GlifName: less
Width: 2293
Flags: HMW
LayerCount: 2
Fore
SplineSet
246 1556 m 1
 246 1638 l 1
 2048 2458 l 1
 2048 2376 l 1
 246 1556 l 1
246 1536 m 1
 246 1618 l 1
 2048 799 l 1
 2048 717 l 1
 246 1536 l 1
EndSplineSet
EndChar

StartChar: backslash
Encoding: 92 92 91
GlifName: backslash
Width: 2129
Flags: HMW
LayerCount: 2
Fore
SplineSet
266 3195 m 1
 1966 -614 l 1
 1864 -614 l 1
 164 3195 l 1
 266 3195 l 1
EndSplineSet
EndChar

StartChar: bracketleft
Encoding: 91 91 92
GlifName: bracketleft
Width: 1380
Flags: HMW
LayerCount: 2
Fore
SplineSet
1257 -614 m 1
 225 -614 l 1
 225 -532 l 1
 1257 -532 l 1
 1257 -614 l 1
1257 3113 m 1
 225 3113 l 1
 225 3195 l 1
 1257 3195 l 1
 1257 3113 l 1
692 3195 m 1
 692 -614 l 1
 225 -614 l 1
 225 3195 l 1
 692 3195 l 1
EndSplineSet
EndChar

StartChar: braceleft
Encoding: 123 123 93
GlifName: braceleft
Width: 1212
VWidth: 4730
Flags: HMW
LayerCount: 2
Fore
SplineSet
1090 3195 m 1
 1090 3113 l 1
 836 3113 705 2908 705 2650 c 0
 705 2355 844 2183 844 1790 c 0
 844 1450 626 1352 225 1270 c 1
 225 1331 l 1
 348 1372 471 1454 471 1622 c 0
 471 1880 225 2064 225 2609 c 0
 225 2990 422 3195 1090 3195 c 1
1090 -614 m 1
 422 -614 225 -406 225 -25 c 0
 225 520 471 705 471 963 c 0
 471 1131 348 1208 225 1249 c 1
 225 1311 l 1
 626 1229 844 1135 844 795 c 0
 844 402 705 229 705 -66 c 0
 705 -324 836 -532 1090 -532 c 1
 1090 -614 l 1
EndSplineSet
EndChar

StartChar: bar
Encoding: 124 124 96
GlifName: bar
Width: 942
VWidth: 4730
Flags: HMW
LayerCount: 2
Fore
SplineSet
430 3195 m 1
 512 3195 l 1
 512 -1024 l 1
 430 -1024 l 1
 430 3195 l 1
EndSplineSet
EndChar

StartChar: cent
Encoding: 162 162 98
GlifName: cent
Width: 2064
VWidth: 4730
Flags: HMW
LayerCount: 2
Fore
SplineSet
1184 2273 m 1
 1184 -348 l 1
 1102 -348 l 1
 1102 2273 l 1
 1184 2273 l 1
EndSplineSet
Refer: 40 99 N 1 0 0 1 0 0 2
EndChar

StartChar: sterling
Encoding: 163 163 99
GlifName: sterling
Width: 2609
VWidth: 4730
Flags: HMW
LayerCount: 2
Fore
SplineSet
2515 741 m 1
 2515 65 2200 -123 1794 -123 c 0
 1233 -123 1024 123 766 123 c 0
 598 123 418 41 377 -82 c 1
 332 -82 l 1
 406 221 626 496 991 496 c 0
 1384 496 1548 356 1843 356 c 0
 2101 356 2433 405 2433 741 c 1
 2515 741 l 1
1905 1659 m 1
 1905 1577 l 1
 61 1577 l 1
 61 1659 l 1
 1905 1659 l 1
451 2253 m 0
 451 2826 889 3113 1573 3113 c 0
 2237 3113 2540 2757 2540 2421 c 0
 2540 2228 2409 2114 2257 2114 c 0
 2122 2114 1966 2204 1966 2392 c 0
 1966 2560 2106 2666 2249 2666 c 0
 2302 2666 2351 2650 2367 2646 c 1
 2342 2757 2122 3023 1671 3023 c 0
 1159 3023 1004 2654 1004 2335 c 0
 1004 1929 1233 1692 1233 1368 c 0
 1233 623 324 610 377 -82 c 1
 295 -82 l 1
 217 487 782 807 782 1069 c 0
 782 1536 451 1782 451 2253 c 0
EndSplineSet
EndChar

StartChar: section
Encoding: 167 167 101
GlifName: section
Width: 1875
VWidth: 4730
Flags: HMW
LayerCount: 2
Fore
SplineSet
479 2650 m 0
 479 2183 1741 2208 1741 1581 c 0
 1741 1311 1520 1188 1307 1049 c 1
 1241 1069 l 1
 1323 1151 1413 1229 1413 1360 c 0
 1413 1864 262 1729 262 2474 c 0
 262 2900 627 3113 967 3113 c 0
 1319 3113 1696 2953 1696 2519 c 0
 1696 2343 1585 2208 1425 2208 c 0
 1286 2208 1180 2310 1180 2466 c 0
 1180 2605 1303 2712 1438 2712 c 0
 1491 2712 1545 2683 1561 2679 c 1
 1500 2880 1278 3031 967 3031 c 0
 717 3031 479 2875 479 2650 c 0
1720 664 m 0
 1720 238 1388 -41 901 -41 c 0
 541 -41 123 102 123 561 c 0
 123 737 233 872 393 872 c 0
 532 872 639 774 639 618 c 0
 639 479 520 377 385 377 c 0
 332 377 274 402 258 406 c 1
 336 164 614 41 901 41 c 0
 1307 41 1454 254 1454 438 c 0
 1454 905 172 852 172 1446 c 0
 172 1749 414 1934 561 2040 c 1
 639 2040 l 1
 623 1991 532 1880 532 1716 c 0
 532 1212 1720 1409 1720 664 c 0
EndSplineSet
EndChar

StartChar: asciitilde
Encoding: 126 126 104
GlifName: asciitilde
Width: 2818
VWidth: 4730
Flags: HMW
LayerCount: 2
Fore
SplineSet
864 1765 m 0
 647 1765 492 1675 492 1405 c 1
 410 1405 l 1
 410 1876 680 2114 1020 2114 c 0
 1471 2114 1520 1729 1913 1729 c 0
 2171 1729 2327 1819 2327 2089 c 1
 2408 2089 l 1
 2408 1618 2138 1380 1798 1380 c 0
 1278 1380 1286 1765 864 1765 c 0
EndSplineSet
EndChar

StartChar: copyright
Encoding: 169 169 105
GlifName: copyright
Width: 3563
Flags: HMW
LayerCount: 2
Fore
SplineSet
205 1536 m 0
 205 2408 910 3113 1782 3113 c 0
 2654 3113 3359 2408 3359 1536 c 0
 3359 664 2654 -41 1782 -41 c 0
 910 -41 205 664 205 1536 c 0
287 1536 m 0
 287 713 959 41 1782 41 c 0
 2605 41 3277 713 3277 1536 c 0
 3277 2359 2605 3031 1782 3031 c 0
 959 3031 287 2359 287 1536 c 0
EndSplineSet
Refer: 14 67 N 0.6 0 0 0.6 852 614 2
EndChar

StartChar: registered
Encoding: 174 174 106
GlifName: registered
Width: 3563
Flags: HMW
LayerCount: 2
Fore
SplineSet
205 1536 m 0
 205 2408 910 3113 1782 3113 c 0
 2654 3113 3359 2408 3359 1536 c 0
 3359 664 2654 -41 1782 -41 c 0
 910 -41 205 664 205 1536 c 0
287 1536 m 0
 287 713 959 41 1782 41 c 0
 2605 41 3277 713 3277 1536 c 0
 3277 2359 2605 3031 1782 3031 c 0
 959 3031 287 2359 287 1536 c 0
EndSplineSet
Refer: 29 82 N 0.6 0 0 0.6 950 606 2
EndChar

StartChar: logicalnot
Encoding: 172 172 107
GlifName: logicalnot
Width: 1990
Flags: HMW
LayerCount: 2
Fore
SplineSet
1663 2437 m 1
 246 2437 l 1
 246 2519 l 1
 1745 2519 l 1
 1745 1692 l 1
 1663 1692 l 1
 1663 2437 l 1
EndSplineSet
EndChar

StartChar: guillemotleft
Encoding: 171 171 108
GlifName: guillemotleft
Width: 2895
Flags: HMW
LayerCount: 2
Fore
SplineSet
1864 1589 m 1
 2691 635 l 1
 2650 594 l 1
 1249 1536 l 1
 1249 1638 l 1
 2650 2580 l 1
 2691 2540 l 1
 1864 1589 l 1
700 1589 m 1
 1544 635 l 1
 1503 594 l 1
 102 1536 l 1
 102 1638 l 1
 1503 2580 l 1
 1544 2540 l 1
 700 1589 l 1
EndSplineSet
EndChar

StartChar: mu
Encoding: 181 181 111
GlifName: mu
Width: 2461
VWidth: 4730
Flags: HMW
LayerCount: 2
Fore
SplineSet
1094 -504 m 0
 1229 -504 1335 -622 1335 -778 c 0
 1335 -938 1249 -1065 950 -1065 c 0
 663 -1065 418 -865 418 -496 c 2
 418 1315 l 1
 500 1315 l 1
 500 -496 l 2
 500 -832 693 -974 963 -999 c 1
 963 -999 l 1
 852 -905 852 -795 852 -721 c 0
 852 -586 959 -504 1094 -504 c 0
EndSplineSet
Refer: 58 117 N 1 0 0 1 0 0 2
EndChar

StartChar: asciicircum
Encoding: 94 94 113
GlifName: asciicircum
Width: 2232
Flags: HMW
LayerCount: 2
Fore
SplineSet
1114 2961 m 1
 451 2540 l 1
 410 2580 l 1
 983 3154 l 1
 1249 3154 l 1
 1823 2580 l 1
 1782 2540 l 1
 1114 2961 l 1
EndSplineSet
EndChar

StartChar: degree
Encoding: 176 176 115
GlifName: degree
Width: 1310
Flags: HMW
LayerCount: 2
Fore
SplineSet
164 2785 m 0
 164 3055 385 3277 655 3277 c 0
 925 3277 1147 3055 1147 2785 c 0
 1147 2515 925 2294 655 2294 c 0
 385 2294 164 2515 164 2785 c 0
389 2785 m 0
 389 2633 503 2519 655 2519 c 0
 807 2519 922 2633 922 2785 c 0
 922 2937 807 3052 655 3052 c 0
 503 3052 389 2937 389 2785 c 0
EndSplineSet
EndChar

StartChar: onequarter
Encoding: 188 188 119
GlifName: onequarter
Width: 2674
Flags: HMW
LayerCount: 2
Fore
SplineSet
2073 2662 m 1
 2154 2662 l 1
 246 -410 l 1
 164 -410 l 1
 2073 2662 l 1
EndSplineSet
Refer: 6 52 N 0.6 0 0 0.6 1106 -422 2
Refer: 3 49 N 0.6 0 0 0.6 -33 1458 2
EndChar

StartChar: onehalf
Encoding: 189 189 120
GlifName: onehalf
Width: 2793
Flags: HMW
LayerCount: 2
Fore
SplineSet
2073 2662 m 1
 2154 2662 l 1
 246 -410 l 1
 164 -410 l 1
 2073 2662 l 1
EndSplineSet
Refer: 4 50 S 0.6 0 0 0.6 1397 -414 2
Refer: 3 49 N 0.6 0 0 0.6 -33 1458 2
EndChar

StartChar: threequarters
Encoding: 190 190 121
GlifName: threequarters
Width: 2920
Flags: HMW
LayerCount: 2
Fore
SplineSet
2318 2662 m 1
 2400 2662 l 1
 492 -410 l 1
 410 -410 l 1
 2318 2662 l 1
EndSplineSet
Refer: 5 51 N 0.6 0 0 0.6 20 1450 2
Refer: 6 52 N 0.6 0 0 0.6 1352 -422 2
EndChar

StartChar: grave
Encoding: 96 96 123
GlifName: grave
Width: 1642
Flags: HMW
LayerCount: 2
Fore
SplineSet
418 2916 m 2
 316 2912 225 2990 225 3092 c 0
 225 3194 328 3301 459 3260 c 2
 1417 2998 l 1
 1397 2916 l 1
 418 2916 l 2
EndSplineSet
EndChar

StartChar: acute
Encoding: 180 180 124
GlifName: acute
Width: 1642
Flags: HMW
LayerCount: 2
Fore
SplineSet
1225 2916 m 2
 246 2916 l 1
 225 2998 l 1
 1184 3260 l 2
 1315 3301 1417 3194 1417 3092 c 0
 1417 2990 1327 2912 1225 2916 c 2
EndSplineSet
EndChar

StartChar: cedilla
Encoding: 184 184 128
GlifName: cedilla
Width: 2252
Flags: HMW
LayerCount: 2
Fore
SplineSet
1315 -573 m 0
 1315 -356 1131 -324 889 -324 c 1
 1257 168 l 1
 1372 168 l 1
 1126 -160 l 1
 1445 -172 1671 -263 1671 -492 c 0
 1671 -697 1475 -901 930 -901 c 1
 930 -819 l 1
 1172 -819 1315 -712 1315 -573 c 0
EndSplineSet
EndChar

StartChar: ring
Encoding: 730 730 271
GlifName: ring
Width: 1310
VWidth: 0
Flags: HMW
LayerCount: 2
Fore
SplineSet
270 2785 m 0
 270 2994 430 3154 655 3154 c 0
 880 3154 1040 2994 1040 2785 c 0
 1040 2576 880 2417 655 2417 c 0
 430 2417 270 2576 270 2785 c 0
455 2785 m 0
 455 2605 520 2499 655 2499 c 0
 790 2499 856 2605 856 2785 c 0
 856 2965 790 3072 655 3072 c 0
 520 3072 455 2965 455 2785 c 0
EndSplineSet
EndChar

StartChar: tilde
Encoding: 732 732 272
GlifName: tilde
Width: 1835
VWidth: 0
Flags: HMW
LayerCount: 2
Fore
SplineSet
528 2716 m 0
 401 2716 287 2637 287 2449 c 1
 205 2449 l 1
 205 2797 385 3002 610 3002 c 0
 913 3002 1094 2679 1307 2679 c 0
 1434 2679 1548 2757 1548 2945 c 1
 1630 2945 l 1
 1630 2556 1532 2392 1266 2392 c 0
 975 2392 770 2716 528 2716 c 0
EndSplineSet
EndChar

StartChar: AE
Encoding: 198 198 274
GlifName: A_E_
Width: 4169
Flags: HMW
LayerCount: 2
Fore
SplineSet
2150 3072 m 1
 2245 3072 l 1
 463 0 l 1
 348 0 l 1
 2150 3072 l 1
61 82 m 1
 963 82 l 1
 963 0 l 1
 61 0 l 1
 61 82 l 1
1004 1044 m 1
 2191 1044 l 1
 2191 963 l 1
 1004 963 l 1
 1004 1044 l 1
2150 3072 m 1
 2638 3072 l 1
 2638 0 l 1
 2150 0 l 1
 2150 3072 l 1
2150 3072 m 1
 4006 3072 l 1
 4006 2232 l 1
 3924 2232 l 1
 3899 2670 3723 2990 3252 2990 c 2
 2150 2990 l 1
 2150 3072 l 1
4047 0 m 1
 1782 0 l 1
 1782 82 l 1
 3211 82 l 2
 3764 82 3940 402 3965 922 c 1
 4047 922 l 1
 4047 0 l 1
3252 1114 m 1
 3227 1388 3076 1548 2843 1548 c 2
 2597 1548 l 1
 2597 1630 l 1
 2843 1630 l 2
 3076 1630 3227 1770 3252 2044 c 1
 3334 2044 l 1
 3334 1114 l 1
 3252 1114 l 1
EndSplineSet
EndChar

StartChar: ae
Encoding: 230 230 277
GlifName: ae
Width: 3239
VWidth: 4730
Flags: HMW
LayerCount: 2
Fore
SplineSet
287 1491 m 0
 287 1749 643 1917 1032 1917 c 0
 1564 1917 1671 1597 1671 1249 c 1
 1626 741 l 1
 1626 233 1315 -41 852 -41 c 0
 479 -41 143 94 143 463 c 0
 143 807 458 1069 1040 1069 c 2
 1499 1069 l 1
 1499 987 l 1
 1098 987 l 2
 811 987 643 782 643 512 c 0
 643 238 749 45 950 45 c 0
 1159 45 1311 303 1311 700 c 2
 1311 1249 l 2
 1311 1523 1270 1819 942 1819 c 0
 778 1819 659 1774 602 1729 c 1
 692 1713 823 1655 823 1499 c 0
 823 1327 668 1241 541 1241 c 0
 394 1241 287 1335 287 1491 c 0
2630 1110 m 1
 2626 1405 2589 1843 2265 1843 c 0
 1909 1843 1815 1425 1815 958 c 0
 1815 491 1921 49 2351 49 c 0
 2703 49 2954 287 3056 586 c 1
 3138 586 l 1
 3032 230 2748 -41 2277 -41 c 0
 1749 -41 1401 319 1401 942 c 0
 1401 1565 1737 1925 2265 1925 c 0
 2875 1925 3133 1474 3133 1028 c 1
 1618 1028 l 1
 1618 1110 l 1
 2630 1110 l 1
EndSplineSet
EndChar

StartChar: uni2010
Encoding: 8208 8208 279
GlifName: uni2010
Width: 1474
Flags: HMW
LayerCount: 2
Fore
SplineSet
246 1167 m 1
 1229 1167 l 1
 1229 1085 l 1
 246 1085 l 1
 246 1167 l 1
EndSplineSet
EndChar

StartChar: uni2011
Encoding: 8209 8209 280
GlifName: uni2011
Width: 1175
Flags: HMW
LayerCount: 2
Fore
SplineSet
246 1167 m 1
 930 1167 l 1
 930 1085 l 1
 246 1085 l 1
 246 1167 l 1
EndSplineSet
EndChar

StartChar: figuredash
Encoding: 8210 8210 282
GlifName: figuredash
Width: 1822
Flags: HMW
LayerCount: 2
Fore
SplineSet
246 1167 m 1
 1577 1167 l 1
 1577 1085 l 1
 246 1085 l 1
 246 1167 l 1
EndSplineSet
EndChar

StartChar: perthousand
Encoding: 8240 8240 285
GlifName: perthousand
Width: 6086
Flags: HMW
LayerCount: 2
Fore
SplineSet
4764 860 m 0
 4764 401 4829 41 5091 41 c 0
 5353 41 5419 401 5419 860 c 0
 5419 1319 5353 1679 5091 1679 c 0
 4829 1679 4764 1319 4764 860 c 0
4239 860 m 0
 4239 1446 4628 1761 5091 1761 c 0
 5554 1761 5943 1446 5943 860 c 0
 5943 274 5472 -41 5091 -41 c 0
 4628 -41 4239 274 4239 860 c 0
2806 860 m 0
 2806 401 2871 41 3133 41 c 0
 3395 41 3461 401 3461 860 c 0
 3461 1319 3395 1679 3133 1679 c 0
 2871 1679 2806 1319 2806 860 c 0
2281 860 m 0
 2281 1446 2670 1761 3133 1761 c 0
 3596 1761 3985 1446 3985 860 c 0
 3985 274 3514 -41 3133 -41 c 0
 2670 -41 2281 274 2281 860 c 0
3047 3072 m 1
 3150 3072 l 1
 1081 0 l 1
 979 0 l 1
 3047 3072 l 1
668 2212 m 0
 668 1753 733 1393 995 1393 c 0
 1257 1393 1323 1753 1323 2212 c 0
 1323 2671 1257 3031 995 3031 c 0
 733 3031 668 2671 668 2212 c 0
143 2212 m 0
 143 2798 532 3113 995 3113 c 0
 1458 3113 1847 2798 1847 2212 c 0
 1847 1626 1376 1311 995 1311 c 0
 532 1311 143 1626 143 2212 c 0
EndSplineSet
EndChar

StartChar: uni2031
Encoding: 8241 8241 286
GlifName: uni2031
Width: 8077
Flags: HMW
LayerCount: 2
Fore
SplineSet
6754 860 m 0
 6754 401 6820 41 7082 41 c 0
 7344 41 7410 401 7410 860 c 0
 7410 1319 7344 1679 7082 1679 c 0
 6820 1679 6754 1319 6754 860 c 0
6230 860 m 0
 6230 1446 6619 1761 7082 1761 c 0
 7545 1761 7934 1446 7934 860 c 0
 7934 274 7463 -41 7082 -41 c 0
 6619 -41 6230 274 6230 860 c 0
4764 860 m 0
 4764 401 4829 41 5091 41 c 0
 5353 41 5419 401 5419 860 c 0
 5419 1319 5353 1679 5091 1679 c 0
 4829 1679 4764 1319 4764 860 c 0
4239 860 m 0
 4239 1446 4628 1761 5091 1761 c 0
 5554 1761 5943 1446 5943 860 c 0
 5943 274 5472 -41 5091 -41 c 0
 4628 -41 4239 274 4239 860 c 0
2806 860 m 0
 2806 401 2871 41 3133 41 c 0
 3395 41 3461 401 3461 860 c 0
 3461 1319 3395 1679 3133 1679 c 0
 2871 1679 2806 1319 2806 860 c 0
2281 860 m 0
 2281 1446 2670 1761 3133 1761 c 0
 3596 1761 3985 1446 3985 860 c 0
 3985 274 3514 -41 3133 -41 c 0
 2670 -41 2281 274 2281 860 c 0
3047 3072 m 1
 3150 3072 l 1
 1081 0 l 1
 979 0 l 1
 3047 3072 l 1
668 2212 m 0
 668 1753 733 1393 995 1393 c 0
 1257 1393 1323 1753 1323 2212 c 0
 1323 2671 1257 3031 995 3031 c 0
 733 3031 668 2671 668 2212 c 0
143 2212 m 0
 143 2798 532 3113 995 3113 c 0
 1458 3113 1847 2798 1847 2212 c 0
 1847 1626 1376 1311 995 1311 c 0
 532 1311 143 1626 143 2212 c 0
EndSplineSet
EndChar

StartChar: uniFB00
Encoding: 64256 64256 290
GlifName: uniF_B_00
Width: 2695
VWidth: 4730
Flags: HMW
LayerCount: 2
Fore
SplineSet
57 82 m 1
 2572 82 l 1
 2572 0 l 1
 57 0 l 1
 57 82 l 1
57 1884 m 1
 2654 1884 l 1
 2654 1802 l 1
 57 1802 l 1
 57 1884 l 1
1753 2666 m 1
 1745 2715 1590 2822 1389 2822 c 0
 1094 2822 868 2527 868 2007 c 2
 868 0 l 1
 426 0 l 1
 426 1892 l 2
 426 2445 815 2908 1380 2908 c 0
 1720 2908 1950 2687 1950 2445 c 0
 1950 2261 1830 2159 1683 2159 c 0
 1556 2159 1413 2233 1413 2413 c 0
 1413 2593 1540 2675 1696 2675 c 0
 1725 2675 1745 2666 1753 2666 c 1
2859 2904 m 1
 2814 2953 2728 3031 2527 3031 c 0
 2199 3031 2081 2732 2081 2212 c 2
 2081 0 l 1
 1638 0 l 1
 1638 2097 l 2
 1638 2650 1962 3113 2519 3113 c 0
 2859 3113 3047 2892 3047 2683 c 0
 3047 2499 2928 2396 2781 2396 c 0
 2654 2396 2511 2470 2511 2650 c 0
 2511 2830 2637 2916 2793 2916 c 0
 2822 2916 2851 2904 2859 2904 c 1
EndSplineSet
Ligature2: "'liga' Standard Ligatures lookup 0-1" f f
LCarets2: 1 0
EndChar

StartChar: uniFB01
Encoding: 64257 64257 291
GlifName: uniF_B_01
Width: 2387
VWidth: 4730
Flags: HMW
LayerCount: 2
Fore
SplineSet
426 2097 m 2
 426 2658 783 3113 1438 3113 c 0
 1860 3113 2056 2892 2056 2650 c 0
 2056 2466 1937 2363 1790 2363 c 0
 1663 2363 1520 2437 1520 2617 c 0
 1520 2797 1646 2879 1802 2879 c 0
 1831 2879 1856 2871 1864 2871 c 1
 1852 2920 1721 3031 1438 3031 c 0
 1020 3031 868 2732 868 2212 c 2
 868 0 l 1
 426 0 l 1
 426 2097 l 2
57 82 m 1
 2327 82 l 1
 2327 0 l 1
 57 0 l 1
 57 82 l 1
1589 1802 m 1
 57 1802 l 1
 57 1884 l 1
 2040 1884 l 1
 2040 0 l 1
 1589 0 l 1
 1589 1802 l 1
EndSplineSet
Ligature2: "'liga' Standard Ligatures lookup 0-1" f i
LCarets2: 1 0
EndChar

StartChar: uniFB02
Encoding: 64258 64258 292
GlifName: uniF_B_02
Width: 2486
VWidth: 4730
Flags: HMW
LayerCount: 2
Fore
SplineSet
57 82 m 1
 2462 82 l 1
 2462 0 l 1
 57 0 l 1
 57 82 l 1
57 1884 m 1
 1425 1884 l 1
 1425 1802 l 1
 57 1802 l 1
 57 1884 l 1
1708 2990 m 1
 2159 3154 l 1
 2159 0 l 1
 1708 0 l 1
 1708 2990 l 1
1683 2871 m 1
 1671 2920 1549 3031 1348 3031 c 0
 1020 3031 868 2732 868 2212 c 2
 868 0 l 1
 426 0 l 1
 426 2097 l 2
 426 2650 782 3113 1339 3113 c 0
 1679 3113 1868 2892 1868 2650 c 0
 1868 2466 1749 2363 1602 2363 c 0
 1475 2363 1331 2437 1331 2617 c 0
 1331 2797 1458 2879 1614 2879 c 0
 1643 2879 1675 2871 1683 2871 c 1
EndSplineSet
Ligature2: "'liga' Standard Ligatures lookup 0-1" f l
LCarets2: 1 0
EndChar

StartChar: uniFB03
Encoding: 64259 64259 293
GlifName: uniF_B_03
Width: 3588
VWidth: 4730
Flags: HMW
LayerCount: 2
Fore
SplineSet
1622 2097 m 2
 1622 2658 1979 3113 2634 3113 c 0
 3056 3113 3252 2892 3252 2650 c 0
 3252 2466 3133 2363 2986 2363 c 0
 2859 2363 2716 2437 2716 2617 c 0
 2716 2797 2842 2879 2998 2879 c 0
 3027 2879 3052 2871 3060 2871 c 1
 3048 2920 2917 3031 2634 3031 c 0
 2216 3031 2064 2732 2064 2212 c 2
 2064 0 l 1
 1622 0 l 1
 1622 2097 l 2
57 82 m 1
 3523 82 l 1
 3523 0 l 1
 57 0 l 1
 57 82 l 1
426 1892 m 2
 426 2445 815 2908 1380 2908 c 0
 1720 2908 1950 2687 1950 2445 c 0
 1950 2261 1830 2159 1683 2159 c 0
 1556 2159 1413 2233 1413 2413 c 0
 1413 2593 1540 2675 1696 2675 c 0
 1725 2675 1745 2666 1753 2666 c 1
 1745 2715 1590 2822 1389 2822 c 0
 1094 2822 868 2527 868 2007 c 2
 868 0 l 1
 426 0 l 1
 426 1892 l 2
2785 1802 m 1
 57 1802 l 1
 57 1884 l 1
 3236 1884 l 1
 3236 0 l 1
 2785 0 l 1
 2785 1802 l 1
EndSplineSet
Ligature2: "'liga' Standard Ligatures lookup 0-1" f f i
LCarets2: 2 0 0
EndChar

StartChar: uniFB04
Encoding: 64260 64260 294
GlifName: uniF_B_04
Width: 3735
VWidth: 4730
Flags: HMW
LayerCount: 2
Fore
SplineSet
57 82 m 1
 3674 82 l 1
 3674 0 l 1
 57 0 l 1
 57 82 l 1
57 1884 m 1
 2638 1884 l 1
 2638 1802 l 1
 57 1802 l 1
 57 1884 l 1
2920 2990 m 1
 3371 3154 l 1
 3371 0 l 1
 2920 0 l 1
 2920 2990 l 1
1753 2666 m 1
 1745 2715 1590 2822 1389 2822 c 0
 1094 2822 868 2527 868 2007 c 2
 868 0 l 1
 426 0 l 1
 426 1892 l 2
 426 2445 815 2908 1380 2908 c 0
 1720 2908 1950 2687 1950 2445 c 0
 1950 2261 1830 2159 1683 2159 c 0
 1556 2159 1413 2233 1413 2413 c 0
 1413 2593 1540 2675 1696 2675 c 0
 1725 2675 1745 2666 1753 2666 c 1
2896 2871 m 1
 2884 2920 2761 3031 2560 3031 c 0
 2232 3031 2081 2732 2081 2212 c 2
 2081 0 l 1
 1638 0 l 1
 1638 2097 l 2
 1638 2650 1995 3113 2552 3113 c 0
 2892 3113 3080 2892 3080 2650 c 0
 3080 2466 2961 2363 2814 2363 c 0
 2687 2363 2544 2437 2544 2617 c 0
 2544 2797 2670 2879 2826 2879 c 0
 2855 2879 2888 2871 2896 2871 c 1
EndSplineSet
Ligature2: "'liga' Standard Ligatures lookup 0-1" f f l
LCarets2: 2 0 0
EndChar

StartChar: ogonek
Encoding: 731 731 295
GlifName: ogonek
Width: 2252
Flags: HMW
LayerCount: 2
Fore
SplineSet
1610 -479 m 1
 1549 -594 1437 -778 1122 -778 c 0
 889 -778 655 -672 655 -426 c 0
 655 -98 1008 90 1282 176 c 1
 1298 131 l 1
 1187 70 1102 -114 1102 -307 c 0
 1102 -483 1159 -643 1290 -643 c 0
 1425 -643 1499 -537 1544 -451 c 1
 1610 -479 l 1
EndSplineSet
EndChar

StartChar: dotlessi
Encoding: 305 305 296
GlifName: dotlessi
Width: 1187
VWidth: 4730
Flags: HMW
LayerCount: 2
Fore
SplineSet
82 82 m 1
 1106 82 l 1
 1106 0 l 1
 82 0 l 1
 82 82 l 1
369 1802 m 1
 82 1802 l 1
 82 1884 l 1
 819 1884 l 1
 819 0 l 1
 369 0 l 1
 369 1802 l 1
EndSplineSet
EndChar

StartChar: uni0237
Encoding: 567 567 297
GlifName: uni0237
Width: 1175
VWidth: 4730
Flags: HMW
LayerCount: 2
Fore
SplineSet
881 1884 m 1
 881 -49 l 2
 881 -586 688 -1065 139 -1065 c 0
 -209 -1065 -414 -856 -414 -606 c 0
 -414 -422 -286 -315 -139 -315 c 0
 -12 -315 131 -389 131 -569 c 0
 131 -749 4 -831 -168 -831 c 0
 -184 -831 -205 -827 -205 -827 c 1
 -197 -868 -69 -979 111 -979 c 0
 504 -979 430 -438 430 82 c 2
 430 1802 l 1
 61 1802 l 1
 61 1884 l 1
 881 1884 l 1
EndSplineSet
EndChar

StartChar: kgreenlandic
Encoding: 312 312 306
GlifName: kgreenlandic
Width: 2482
VWidth: 4730
Flags: HMW
LayerCount: 2
Fore
SplineSet
2249 0 m 1
 1688 0 l 1
 815 1077 l 1
 1880 1884 l 1
 2015 1884 l 1
 1221 1262 l 1
 2249 0 l 1
1360 82 m 1
 2404 82 l 1
 2404 0 l 1
 1360 0 l 1
 1360 82 l 1
2241 1802 m 1
 1327 1802 l 1
 1327 1884 l 1
 2241 1884 l 1
 2241 1802 l 1
61 82 m 1
 1143 82 l 1
 1143 0 l 1
 61 0 l 1
 61 82 l 1
430 1802 m 1
 61 1802 l 1
 61 1884 l 1
 881 1884 l 1
 881 0 l 1
 430 0 l 1
 430 1802 l 1
EndSplineSet
EndChar

StartChar: breve
Encoding: 728 728 307
GlifName: breve
Width: 1179
VWidth: 4730
Flags: HMW
LayerCount: 2
Fore
SplineSet
205 3109 m 1
 205 2912 369 2822 590 2822 c 0
 811 2822 975 2912 975 3109 c 1
 1057 3109 l 1
 1057 2802 950 2531 590 2531 c 0
 230 2531 123 2802 123 3109 c 1
 205 3109 l 1
EndSplineSet
EndChar

StartChar: thorn
Encoding: 254 254 318
GlifName: thorn
Width: 2428
VWidth: 4730
Flags: HMW
LayerCount: 2
Fore
SplineSet
737 942 m 0
 737 1565 983 1921 1438 1921 c 0
 1884 1921 2306 1556 2306 942 c 0
 2306 328 1884 -41 1438 -41 c 0
 983 -41 737 319 737 942 c 0
799 942 m 0
 799 352 1073 86 1323 86 c 0
 1634 86 1786 393 1786 942 c 0
 1786 1491 1638 1794 1327 1794 c 0
 1069 1794 799 1532 799 942 c 0
61 -942 m 1
 1085 -942 l 1
 1085 -1024 l 1
 61 -1024 l 1
 61 -942 l 1
348 2990 m 1
 61 2990 l 1
 61 3072 l 1
 799 3072 l 1
 799 -1024 l 1
 348 -1024 l 1
 348 2990 l 1
EndSplineSet
EndChar

StartChar: Thorn
Encoding: 222 222 319
GlifName: T_horn
Width: 2584
Flags: HMW
LayerCount: 2
Fore
SplineSet
430 3072 m 1
 918 3072 l 1
 918 0 l 1
 430 0 l 1
 430 3072 l 1
61 82 m 1
 1286 82 l 1
 1286 0 l 1
 61 0 l 1
 61 82 l 1
61 3072 m 1
 1286 3072 l 1
 1286 2990 l 1
 61 2990 l 1
 61 3072 l 1
1368 737 m 2
 836 737 l 1
 836 819 l 1
 1311 819 l 2
 1704 819 1892 1232 1892 1597 c 0
 1892 1962 1704 2376 1311 2376 c 2
 836 2376 l 1
 836 2458 l 1
 1368 2458 l 2
 2109 2458 2441 2129 2441 1597 c 0
 2441 1065 2109 737 1368 737 c 2
EndSplineSet
EndChar

StartChar: Lslash
Encoding: 321 321 324
GlifName: L_slash
Width: 2408
Flags: HMW
LayerCount: 2
Fore
SplineSet
61 1475 m 1
 1556 2376 l 1
 1556 2273 l 1
 61 1372 l 1
 61 1475 l 1
EndSplineSet
Refer: 23 76 N 1 0 0 1 0 0 2
EndChar

StartChar: lslash
Encoding: 322 322 325
GlifName: lslash
Width: 1376
VWidth: 4730
Flags: HMW
LayerCount: 2
Fore
SplineSet
61 1606 m 1
 1311 2376 l 1
 1311 2265 l 1
 61 1495 l 1
 61 1606 l 1
EndSplineSet
Refer: 49 108 N 1 0 0 1 0 0 2
EndChar

StartChar: eth
Encoding: 240 240 329
GlifName: eth
Width: 2375
VWidth: 4730
Flags: HMW
LayerCount: 2
Fore
SplineSet
483 2580 m 1
 2245 2580 l 1
 2245 2499 l 1
 483 2499 l 1
 483 2580 l 1
2171 1270 m 0
 2171 410 1765 -41 1130 -41 c 0
 495 -41 123 410 123 1024 c 0
 123 1720 614 2011 1044 2011 c 0
 1564 2011 1712 1634 1712 1147 c 1
 1655 1147 l 1
 1655 1630 1450 1888 1151 1888 c 0
 827 1888 639 1614 639 1024 c 0
 639 516 721 41 1118 41 c 0
 1515 41 1655 557 1655 1147 c 1
 1642 1516 l 1
 1642 2221 1151 3043 430 3043 c 1
 430 3113 l 1
 1401 3113 2171 2282 2171 1270 c 0
EndSplineSet
EndChar

StartChar: OE
Encoding: 338 338 330
GlifName: O_E_
Width: 3956
Flags: HMW
LayerCount: 2
Fore
SplineSet
1614 2990 m 1025,0,0
733 1536 m 0,0,0
 733 766 934 82 1614 82 c 1,0,0
 1556 0 l 1,0,0
 725 0 164 623 164 1536 c 0,0,0
 164 2449 725 3072 1556 3072 c 1,0,0
 1614 2990 l 1,0,0
 934 2990 733 2306 733 1536 c 0,0,0
EndSplineSet
Refer: 16 69 N 1 0 0 1 1495 0 2
EndChar

StartChar: germandbls
Encoding: 223 223 332
GlifName: germandbls
Width: 2936
VWidth: 4730
Flags: HMW
LayerCount: 2
Fore
SplineSet
1503 1642 m 1
 1503 1700 l 1
 1999 1700 2138 2077 2138 2339 c 0
 2138 2634 2011 3043 1593 3043 c 0
 1061 3043 897 2552 897 1970 c 2
 897 0 l 1
 430 0 l 1
 430 2011 l 2
 430 2736 934 3113 1602 3113 c 0
 2188 3113 2650 2786 2650 2380 c 0
 2650 1954 2326 1642 1503 1642 c 1
61 82 m 1
 1266 82 l 1
 1266 0 l 1
 61 0 l 1
 61 82 l 1
2773 680 m 0
 2773 238 2367 -41 1921 -41 c 0
 1597 -41 1348 197 1348 590 c 0
 1348 783 1482 889 1642 889 c 0
 1781 889 1905 799 1905 627 c 0
 1905 471 1765 369 1630 369 c 0
 1585 369 1515 377 1466 418 c 1
 1495 221 1679 45 1884 45 c 0
 2199 45 2261 393 2261 655 c 0
 2261 1040 2162 1622 1503 1622 c 1
 1503 1679 l 1
 2490 1679 2773 1212 2773 680 c 0
EndSplineSet
EndChar

StartChar: circumflex
Encoding: 710 710 335
GlifName: circumflex
Width: 1642
Flags: HMW
LayerCount: 2
Fore
SplineSet
819 2929 m 1
 246 2621 l 1
 205 2662 l 1
 672 3154 l 1
 971 3154 l 1
 1438 2662 l 1
 1397 2621 l 1
 819 2929 l 1
EndSplineSet
EndChar

StartChar: caron
Encoding: 711 711 336
GlifName: caron
Width: 1642
Flags: HMW
LayerCount: 2
Fore
SplineSet
819 2929 m 1
 1397 3236 l 1
 1438 3195 l 1
 971 2703 l 1
 672 2703 l 1
 205 3195 l 1
 246 3236 l 1
 819 2929 l 1
EndSplineSet
EndChar

StartChar: pi
Encoding: 960 960 337
GlifName: pi
Width: 2461
VWidth: 4730
Flags: HMW
LayerCount: 2
Fore
SplineSet
2318 422 m 1
 2224 135 2052 -41 1835 -41 c 0
 1610 -41 1417 65 1417 315 c 2
 1417 1720 l 1
 1868 1720 l 1
 1868 406 l 2
 1868 324 1921 258 2019 258 c 0
 2093 258 2179 316 2257 455 c 1
 2318 422 l 1
459 -41 m 0
 275 -41 176 61 176 188 c 0
 176 507 709 377 709 1143 c 2
 709 1843 l 1
 938 1843 l 1
 938 995 l 2
 938 348 762 -41 459 -41 c 0
2236 1884 m 1
 2236 1434 l 1
 250 1434 l 1
 250 1126 l 1
 168 1126 l 1
 168 1884 l 1
 2236 1884 l 1
EndSplineSet
EndChar

StartChar: uni1E9E
Encoding: 7838 7838 338
GlifName: uni1E_9E_
Width: 3428
VWidth: 4730
Flags: HMW
LayerCount: 2
Fore
SplineSet
61 82 m 1
 1307 82 l 1
 1307 0 l 1
 61 0 l 1
 61 82 l 1
2281 1618 m 1
 1790 1700 l 1
 2724 2863 l 1
 2556 2957 2298 3027 2003 3027 c 0
 1258 3027 938 2494 938 1765 c 2
 938 0 l 1
 430 0 l 1
 430 1806 l 2
 430 2654 1114 3113 2003 3113 c 0
 2630 3113 3011 2842 3142 2699 c 1
 2281 1618 l 1
1470 393 m 1
 1503 278 1720 53 2101 53 c 0
 2568 53 2736 385 2736 795 c 0
 2736 1123 2646 1622 1790 1622 c 1
 1790 1700 l 1
 3007 1700 3265 1266 3265 799 c 0
 3265 258 2794 -41 2200 -41 c 0
 1594 -41 1315 287 1315 598 c 0
 1315 791 1438 909 1606 909 c 0
 1753 909 1868 807 1868 635 c 0
 1868 479 1732 369 1589 369 c 0
 1528 369 1486 389 1470 393 c 1
EndSplineSet
EndChar

StartChar: uni203D
Encoding: 8253 8253 339
GlifName: uni203D_
Width: 2555
Flags: HMW
LayerCount: 2
Fore
SplineSet
1565 2040 m 0
 1520 1647 1298 1196 1298 909 c 1
 1217 909 l 1
 1217 1196 1077 1647 1032 2040 c 0
 1028 2069 1028 2093 1028 2118 c 0
 1028 2233 1089 2425 1298 2425 c 0
 1507 2425 1569 2233 1569 2118 c 0
 1569 2093 1569 2069 1565 2040 c 0
279 2241 m 0
 279 2618 672 3113 1360 3113 c 0
 1978 3113 2417 2794 2417 2253 c 0
 2417 1745 1868 1372 1356 1372 c 1
 1356 1430 l 1
 1704 1475 1978 1913 1978 2294 c 0
 1978 2679 1712 2986 1266 2986 c 0
 717 2986 483 2629 434 2449 c 1
 450 2453 492 2474 553 2474 c 0
 696 2474 811 2359 811 2216 c 0
 811 2028 664 1946 545 1946 c 0
 406 1946 279 2048 279 2241 c 0
EndSplineSet
Refer: 1 46 S 1 0 0 1 799 0 2
EndChar

StartChar: R.alt
Encoding: 65536 -1 340
GlifName: R_.alt
Width: 2846
Flags: HMW
LayerCount: 2
Fore
SplineSet
1462 1565 m 2
 815 1565 l 1
 815 1618 l 1
 1421 1618 l 2
 1814 1618 2028 1851 2028 2314 c 0
 2028 2777 1814 2990 1421 2990 c 2
 78 2990 l 1
 78 3072 l 1
 1462 3072 l 2
 2105 3072 2535 2846 2535 2314 c 0
 2535 1782 2146 1565 1462 1565 c 2
78 82 m 1
 1434 82 l 1
 1434 0 l 1
 78 0 l 1
 78 82 l 1
512 3072 m 1
 999 3072 l 1
 999 0 l 1
 512 0 l 1
 512 3072 l 1
2810 0 m 1
 2744 0 2605 0 2458 0 c 0
 1454 0 2384 1536 1401 1536 c 2
 815 1536 l 1
 815 1577 l 1
 1581 1577 l 2
 2978 1577 2179 82 2666 82 c 0
 2752 82 2753 82 2810 82 c 1
 2810 0 l 1
EndSplineSet
EndChar

StartChar: J.alt
Encoding: 65537 -1 341
GlifName: J_.alt
Width: 2363
Flags: HMW
LayerCount: 2
Back
SplineSet
1191.93554688 3072 m 5
 2482.17578125 3072 l 5
 2482.17578125 2990.08007812 l 5
 1191.93554688 2990.08007812 l 5
 1191.93554688 3072 l 5
1683.45605469 3072 m 5
 2072.57617188 3072 l 5
 2072.57617188 1146.87988281 l 6
 2072.57617188 491.51953125 1748.9921875 -40.9599609375 1089.53613281 -40.9599609375 c 4
 610.303710938 -40.9599609375 409.599609375 307.200195312 409.599609375 593.919921875 c 4
 409.599609375 847.872070312 561.15234375 983.040039062 724.9921875 983.040039062 c 4
 868.3515625 983.040039062 995.328125 909.311523438 995.328125 720.896484375 c 4
 995.328125 577.536132812 864.255859375 462.84765625 724.9921875 462.84765625 c 4
 638.975585938 462.84765625 536.576171875 516.095703125 495.616210938 585.727539062 c 5
 499.711914062 335.872070312 655.360351562 40.9599609375 1089.53613281 40.9599609375 c 4
 1585.15234375 40.9599609375 1683.45605469 450.559570312 1683.45605469 1024 c 6
 1683.45605469 3072 l 5
EndSplineSet
Fore
SplineSet
909 3072 m 1
 2306 3072 l 1
 2306 2990 l 1
 909 2990 l 1
 909 3072 l 1
1409 3072 m 1
 1896 3072 l 1
 1896 1057 l 1
 1847 434 1515 -57 831 -57 c 0
 327 -57 78 308 78 627 c 0
 78 906 254 1057 442 1057 c 0
 610 1057 754 959 754 750 c 0
 754 582 610 446 438 446 c 0
 336 446 229 499 176 573 c 1
 196 315 389 25 815 25 c 0
 1286 25 1409 402 1409 975 c 2
 1409 3072 l 1
EndSplineSet
EndChar

StartChar: four.alt
Encoding: 65538 -1 342
GlifName: four.alt
Width: 2535
VWidth: 4730
Flags: HMW
LayerCount: 2
Fore
SplineSet
2269 82 m 1
 2269 0 l 1
 1085 0 l 1
 1085 82 l 1
 2269 82 l 1
1962 2040 m 1
 1962 -4 l 1
 1475 -4 l 1
 1475 1917 l 1
 1622 1917 1864 1983 1962 2040 c 1
213 840 m 1
 2331 840 l 1
 2331 758 l 1
 61 758 l 1
 634 1577 1294 2458 1376 3072 c 1
 1892 3072 l 1
 1814 2437 791 1635 213 840 c 1
EndSplineSet
EndChar

StartChar: fj.lig
Encoding: 65539 -1 343
GlifName: fj.lig
Width: 2338
VWidth: 4730
Flags: HMW
LayerCount: 2
Back
SplineSet
40.9599609375 81.919921875 m 5
 1515.51953125 81.919921875 l 5
 1515.51953125 0 l 5
 40.9599609375 0 l 5
 40.9599609375 81.919921875 l 5
409.599609375 2097.15234375 m 2
 409.599609375 2756.60839844 929.791992188 3112.95996094 1748.9921875 3112.95996094 c 0
 2203.6484375 3112.95996094 2498.55957031 2859.0078125 2498.55957031 2584.57617188 c 0
 2498.55957031 2334.71972656 2347.0078125 2166.78417969 2101.24804688 2166.78417969 c 0
 1875.96777344 2166.78417969 1667.07226562 2306.04785156 1667.07226562 2551.80761719 c 0
 1667.07226562 2797.56835938 1826.81640625 2949.12011719 2048 2949.12011719 c 0
 2146.30371094 2949.12011719 2199.55175781 2916.3515625 2199.55175781 2916.3515625 c 1
 2134.015625 2957.31152344 1982.46386719 3026.94433594 1748.9921875 3026.94433594 c 0
 1298.43164062 3026.94433594 1146.87988281 2732.03222656 1146.87988281 2211.83984375 c 2
 1146.87988281 0 l 1
 409.599609375 0 l 1
 409.599609375 2097.15234375 l 2
2498.55957031 1884.16015625 m 1
 2498.55957031 -49.15234375 l 2
 2498.55957031 -585.727539062 1978.36816406 -1064.95996094 1363.96777344 -1064.95996094 c 0
 950.272460938 -1064.95996094 614.400390625 -872.448242188 614.400390625 -557.055664062 c 0
 614.400390625 -307.200195312 806.912109375 -118.784179688 1052.671875 -118.784179688 c 0
 1277.95214844 -118.784179688 1486.84765625 -258.047851562 1486.84765625 -503.807617188 c 0
 1486.84765625 -749.568359375 1327.10351562 -897.024414062 1024 -897.024414062 c 0
 1011.71191406 -897.024414062 995.328125 -897.024414062 995.328125 -897.024414062 c 1
 1040.38378906 -917.50390625 1122.30371094 -966.65625 1302.52832031 -966.65625 c 0
 1794.04785156 -966.65625 1720.3203125 -438.272460938 1720.3203125 81.919921875 c 2
 1720.3203125 1802.24023438 l 1
 40.9599609375 1802.24023438 l 1
 40.9599609375 1884.16015625 l 1
 2498.55957031 1884.16015625 l 1
EndSplineSet
Fore
SplineSet
57 82 m 1
 1253 82 l 1
 1253 0 l 1
 57 0 l 1
 57 82 l 1
2007 -49 m 2
 2007 -586 1815 -1065 1266 -1065 c 0
 918 -1065 713 -856 713 -606 c 0
 713 -422 840 -315 987 -315 c 0
 1114 -315 1257 -389 1257 -569 c 0
 1257 -749 1130 -831 958 -831 c 0
 946 -831 930 -827 922 -827 c 1
 930 -868 1057 -979 1237 -979 c 0
 1630 -979 1556 -438 1556 82 c 2
 1556 1802 l 1
 57 1802 l 1
 57 1884 l 1
 2007 1884 l 1
 2007 -49 l 2
1827 2871 m 1
 1815 2920 1688 3031 1405 3031 c 0
 987 3031 868 2732 868 2212 c 2
 868 0 l 1
 426 0 l 1
 426 2097 l 2
 426 2658 750 3113 1405 3113 c 0
 1827 3113 2023 2892 2023 2650 c 0
 2023 2466 1904 2363 1757 2363 c 0
 1630 2363 1487 2437 1487 2617 c 0
 1487 2797 1613 2879 1769 2879 c 0
 1798 2879 1819 2871 1827 2871 c 1
EndSplineSet
LCarets2: 1 0
Ligature2: "'liga' Standard Ligatures lookup 0-1" f j
EndChar

StartChar: uni2116
Encoding: 8470 8470 344
Width: 4546
Flags: HW
LayerCount: 2
Fore
SplineSet
3396 2335 m 0
 3396 1868 3490 1638 3715 1638 c 0
 3940 1638 4035 1868 4035 2335 c 0
 4035 2802 3940 3031 3715 3031 c 0
 3490 3031 3396 2802 3396 2335 c 0
2998 2335 m 0
 2998 2835 3293 3113 3715 3113 c 0
 4137 3113 4432 2835 4432 2335 c 0
 4432 1835 4137 1556 3715 1556 c 0
 3293 1556 2998 1835 2998 2335 c 0
EndSplineSet
Refer: 85 45 S 1 0 0 1 2978 164 2
Refer: 25 78 S 1 0 0 1 0 0 2
EndChar

StartChar: Euro
Encoding: 8364 8364 345
Width: 2932
Flags: HW
LayerCount: 2
Fore
SplineSet
2548 2728 m 1
 2462 2843 2265 3023 1937 3023 c 0
 1286 3023 1065 2281 1065 1536 c 0
 1065 709 1343 66 1847 66 c 0
 2236 66 2507 389 2609 729 c 1
 2699 729 l 1
 2593 332 2286 -41 1774 -41 c 0
 1115 -41 487 594 487 1536 c 0
 487 2396 1032 3113 1880 3113 c 0
 2404 3113 2724 2745 2724 2507 c 0
 2724 2314 2596 2212 2449 2212 c 0
 2322 2212 2175 2294 2175 2482 c 0
 2175 2650 2306 2748 2449 2748 c 0
 2494 2748 2528 2736 2548 2728 c 1
EndSplineSet
Refer: 88 61 N 1 0 0 1 -123 -287 2
EndChar
